<svg xmlns="http://www.w3.org/2000/svg" version="1.1" width="600px" height="600px" viewBox="0 0 200 200" style="overflow:hidden!important;"><defs id="SvgjsDefs3072"><linearGradient id="SvgjsLinearGradient6597" x1="79.9234" y1="82.4503" x2="79.9234" y2="113.401" gradientUnits="userSpaceOnUse" class="svga-on-canvas-glasses-gradient-single-0-null"><stop id="SvgjsStop6598" stop-opacity="1" stop-color="#150000" offset="0.004166667" ></stop><stop id="SvgjsStop6599" stop-opacity="0.8088" stop-color="#190300" offset="0.1945" ></stop><stop id="SvgjsStop6600" stop-opacity="0.6342" stop-color="#240c00" offset="0.3684" ></stop><stop id="SvgjsStop6601" stop-opacity="0.466" stop-color="#361b00" offset="0.5359" ></stop><stop id="SvgjsStop6602" stop-opacity="0.3018" stop-color="#503100" offset="0.6994" ></stop><stop id="SvgjsStop6603" stop-opacity="0.1421" stop-color="#724c00" offset="0.8585" ></stop><stop id="SvgjsStop6604" stop-opacity="0" stop-color="#966a00" offset="1" ></stop></linearGradient><linearGradient id="SvgjsLinearGradient6606" x1="-20.0765" y1="82.4503" x2="-20.0765" y2="113.401" gradientTransform="matrix(-1 0 0 1 100 0)" gradientUnits="userSpaceOnUse" class="svga-on-canvas-glasses-gradient-single-1-null"><stop id="SvgjsStop6607" stop-opacity="1" stop-color="#150000" offset="0.004166667" ></stop><stop id="SvgjsStop6608" stop-opacity="0.8088" stop-color="#190300" offset="0.1945" ></stop><stop id="SvgjsStop6609" stop-opacity="0.6342" stop-color="#240c00" offset="0.3684" ></stop><stop id="SvgjsStop6610" stop-opacity="0.466" stop-color="#361b00" offset="0.5359" ></stop><stop id="SvgjsStop6611" stop-opacity="0.3018" stop-color="#503100" offset="0.6994" ></stop><stop id="SvgjsStop6612" stop-opacity="0.1421" stop-color="#724c00" offset="0.8585" ></stop><stop id="SvgjsStop6613" stop-opacity="0" stop-color="#966a00" offset="1" ></stop></linearGradient><linearGradient id="SvgjsLinearGradient7953" x1="80.0429" y1="88.1094" x2="80.0429" y2="107.7139" gradientUnits="userSpaceOnUse" class="svga-on-canvas-glasses-gradient-single-0-null"><stop id="SvgjsStop7954" stop-opacity="1" stop-color="#bfeaf2" offset="0" ></stop><stop id="SvgjsStop7955" stop-opacity="0.649" stop-color="#a1cae3" offset="0.351" ></stop><stop id="SvgjsStop7956" stop-opacity="0" stop-color="#6086c4" offset="1" ></stop></linearGradient><linearGradient id="SvgjsLinearGradient7958" x1="-19.9571" y1="88.1094" x2="-19.9571" y2="107.7139" gradientTransform="matrix(-1 0 0 1 100 0)" gradientUnits="userSpaceOnUse" class="svga-on-canvas-glasses-gradient-single-1-null"><stop id="SvgjsStop7959" stop-opacity="1" stop-color="#bfeaf2" offset="0" ></stop><stop id="SvgjsStop7960" stop-opacity="0.649" stop-color="#a1cae3" offset="0.351" ></stop><stop id="SvgjsStop7961" stop-opacity="0" stop-color="#6086c4" offset="1" ></stop></linearGradient></defs><g id="svga-group-wrapper"><g id="svga-group-backs-single"><path id="SvgjsPath8244" d="M0 0h200v200H0V0z" fill="#ecf0f1" stroke-width="none" opacity="1"></path><path id="SvgjsPath8245" d="M0 0h28.6v28.6H0V0zm57.1 0h28.6v28.6H57.1V0zm57.2 0h28.6v28.6h-28.6V0zm57.1 0H200v28.6h-28.6V0zM28.6 28.6h28.6v28.6H28.6V28.6zm57.1 0h28.6v28.6H85.7V28.6zm57.2 0h28.6v28.6h-28.6V28.6zM0 57.1h28.6v28.6H0V57.1zm57.1 0h28.6v28.6H57.1V57.1zm57.2 0h28.6v28.6h-28.6V57.1zm57.1 0H200v28.6h-28.6V57.1zM28.6 85.7h28.6v28.6H28.6V85.7zm57.1 0h28.6v28.6H85.7V85.7zm57.2 0h28.6v28.6h-28.6V85.7zM0 114.3h28.6v28.6H0v-28.6zm57.1 0h28.6v28.6H57.1v-28.6zm57.2 0h28.6v28.6h-28.6v-28.6zm57.1 0H200v28.6h-28.6v-28.6zM28.6 142.9h28.6v28.6H28.6v-28.6zm57.1 0h28.6v28.6H85.7v-28.6zm57.2 0h28.6v28.6h-28.6v-28.6zM0 171.4h28.6V200H0v-28.6zm57.1 0h28.6V200H57.1v-28.6zm57.2 0h28.6V200h-28.6v-28.6zm57.1 0H200V200h-28.6v-28.6z" fill="#c6dce2" stroke-width="none" opacity="1"></path></g><g id="svga-group-humanwrap-move" transform="matrix(1,0,0,1,0,0)"><g id="svga-group-humanwrap" transform="matrix(1,0,0,1,0,0)"><g id="svga-group-hair-back-move" transform="matrix(1,0,0,1,0,0)"><g id="svga-group-hair-back" transform="matrix(1,0,0,1,0,0)"></g></g><g id="svga-group-humanbody-back"><path id="SvgjsPath3473" d="M166.5 181.1c-10.9-6.6-27.6-8.4-35-12.1-4.9-2.5-9.1-4.7-8.9-17.8s1.9-42.4 1.9-42.4H75.4s1.6 29.4 1.9 42.4-4.2 15.6-8.9 17.8c-7.4 3.5-24.1 5.4-35 12.1-10.8 6.6-10 18.9-10 18.9v19.7h153.3V200c-.1 0 .7-12.3-10.2-18.9z" fill="#f0c7b1" stroke-width="none" opacity="1" stroke="none"></path></g><g id="svga-group-chinshadow-single"><path id="SvgjsPath7887" d="M76.6 159.7c11 5 20.4 5.7 23.4 5.7s12.4-.8 23.3-5.7c-.5-2.2-.8-4.9-.7-8.5.2-13.1 1.9-42.4 1.9-42.4H75.4s1.6 29.4 1.9 42.4c.1 3.5-.2 6.3-.7 8.5z" fill="#d19271" stroke-width="none" opacity="0.65"></path></g><g id="svga-group-humanbody-front"><path id="SvgjsPath3474" d="M78.7 156.8c.5 4.8 1.7 9.4 3.1 13.9.8 2.3 1.6 4.6 2.6 6.9.8 2 1.7 4.2 3.1 5.9.3.4 1 0 .9-.5-.5-2.2-1.6-4.3-2.4-6.4-.9-2.2-1.7-4.4-2.5-6.6-1.5-4.4-2.8-8.9-4.1-13.3-.2-.4-.8-.3-.7.1zm41.3-1c-1.3 8.2-3.9 16.1-5.4 24.2-.1.4.4.5.6.2 3.1-7.7 4.1-16.1 5.1-24.3-.1-.2-.3-.2-.3-.1zm-25.8 11.9c-.9 3.6 1.9 8.6 6.2 7.6.5-.1.4-.8 0-1-1.4-.5-2.9-.9-3.9-2.1-1.1-1.2-1.5-2.9-1.4-4.5 0-.4-.8-.5-.9 0z" fill="#d19271" stroke-width="none" opacity="1" stroke="none"></path><path id="SvgjsPath3475" d="M177.3 219.7c-.1-6.6-.3-13.1-.3-19.7l-.3-.3c.1 0 .1 0 .2.1s.1.2.1.1v-1.4c0-.5-.1-.9-.1-1.4-.1-.9-.3-1.9-.5-2.8-.5-1.8-1.1-3.6-2-5.3-1.7-3.4-4.4-6.2-7.7-8.1-3.6-2.2-7.6-3.8-11.6-5.1-4-1.3-8.1-2.4-12.1-3.5-4-1.2-8.1-2.2-11.8-4.2-1.9-1-3.6-2.1-4.8-3.6-1.2-1.6-1.9-3.5-2.3-5.5-.8-4-.4-8.2-.3-12.4l.7-12.6 1.5-25.2.1-1.4h-1.4c-8.2 0-16.4 0-24.6.1l-24.6.3h-.9l.1.9c.8 11.9 1.6 23.8 2.1 35.7.1 3 .3 6 .2 8.9-.1 2.9-.4 5.9-1.6 8.6-.6 1.3-1.4 2.5-2.4 3.5s-2.3 1.8-3.6 2.4c-2.6 1.3-5.4 2.2-8.3 3-5.8 1.5-11.6 2.8-17.3 4.7-2.8.9-5.7 2-8.4 3.4-1.3.7-2.7 1.4-4 2.4-1.3.9-2.4 1.9-3.5 3.1-2.1 2.3-3.6 5.2-4.5 8.1-.5 1.5-.8 3-1 4.6-.1.8-.1 1.6-.1 2.4v2.3l-.2 17.9v1.3h1.4l38.3.2c12.8.1 25.5.1 38.3 0 12.8-.1 25.6-.1 38.3-.3 12.8-.2 25.6-.5 38.3-.7h.6v-.5zm-77.2-1.6H61.8l-37 .2-.1-16.6v-2.2c0-.7 0-1.4.1-2.1.1-1.4.4-2.8.8-4.2.8-2.7 2.1-5.3 3.9-7.5.9-1.1 2-2.1 3.1-2.9 1.1-.9 2.4-1.6 3.7-2.3 2.6-1.4 5.3-2.5 8.1-3.5 5.6-2 11.4-3.4 17.1-5.1 2.9-.8 5.8-1.7 8.5-3.1 1.3-.7 2.7-1.5 3.8-2.6 1.1-1.1 2-2.4 2.6-3.9 1.2-2.9 1.5-5.9 1.6-8.9 0-3-.1-6-.2-9l-1.3-34.8 23.5.4c7.7.1 15.4.1 23.1.1-.4 7.9-.8 15.9-1.1 23.8-.2 4.2-.2 8.4-.3 12.6 0 4.2-.2 8.5.8 12.8.5 2.1 1.3 4.2 2.8 6 1.4 1.7 3.4 2.9 5.3 3.8 3.9 1.9 8 2.8 12.1 3.8s8.2 2 12.2 3.3c4 1.3 7.9 2.8 11.5 5 3.2 1.9 5.8 4.7 7.5 8 .9 1.6 1.5 3.4 1.9 5.2.2.9.4 1.8.4 2.7.1.5.1.9.1 1.4V200l-.3 19c-12.6-.2-25.1-.5-37.7-.7-12.7-.1-25.5-.1-38.2-.2z" fill="#c27b55" stroke-width="none" opacity="1" stroke="none"></path></g><g id="svga-group-clothes-single"><path id="SvgjsPath7861" d="M100.8 184.4c-1.1-3-8.2-7.8-13.2-10.6s-7-4.9-10-8.8c-1.8-3.6-1-8.9-1-8.9-.1-4.7-.6-9.5-.9-14.7-8.2-1.1-13.1 3.7-14 4.6-6.5 6.3-3.1 8.5-5.7 11.5-9.2 2.1-7.1 14.2-10.7 15-8.7 1.9-21.2 7-24.2 21 0 0-1.6 9.2-1.6 26.7h160.7c0-17.5-1.6-26.7-1.6-26.7-3.2-15.2-17.6-19-26.1-21.4-1.4-.6.2-5.2-2.5-10.5-1.4-2.7-3.9-6.5-9.3-7.8 0 0-1.2-6.6-5.4-9.9-4.2-3.3-11.2-2.5-11.2-2.5s-.3 14.1-.3 16.1c0 3.2-.2 4.9-1.6 6.6s-4.4 3.9-6.9 7.5-10.1 7.5-11.7 9c-1.4 1.4-2.8 3.8-2.8 3.8z" fill="#386e77" stroke-width="none" opacity="1"></path><path id="SvgjsPath7862" d="M105.6 187.4c-.6.6-1.7 3.4-1.8 5.7s1.8 11.5 2.1 13.4-1 7.4-1 8.5 2.8 2.8 3.1 1.7c.3-1.1 1.2-8.4.2-10.9s-2.2-10.1-2.2-11.6 1.1-5.6 1.6-6.5c0 0 .2-.8-.6-.9-.8-.1-1.4.6-1.4.6z" fill="#d6d6d6" stroke-width="none" opacity="1"></path><path id="SvgjsPath7863" d="m95.6 186.8.1-.2s1.8-1.3 1.9.9c0 0-1.2 2.8-1.2 4.8s2.2 11.9 2.5 14.1-2.7 10.4-3.1 10.5-2.1-.9-2.6-1.3c-.4-.4 2.5-6.9 2.8-9.9.3-2.9-.4-8.7-1.2-12.2-.8-3.5.4-5.9.8-6.6v-.1z" fill="#d6d6d6" stroke-width="none" opacity="1"></path><path id="SvgjsPath7864" d="M181.4 204.3c-.2-2.6-.4-5.2-.7-7.9l-.2-2-.1-1v-.3c0-.1 0-.2-.1-.3l-.1-.5c-.3-1.4-.7-2.7-1.2-4-1.1-2.6-2.6-5-4.4-7.1-1.9-2.1-4.1-3.8-6.5-5.2-4.6-2.7-9.6-4.2-14.5-5.5v-.1c-.1-.4-.1-.9-.1-1.4-.1-1-.1-2-.3-3.1-.3-2.1-1.1-4.2-2.1-6-1-1.8-2.4-3.6-4.1-4.9-1.5-1.2-3.2-2-5-2.6-.4-1.4-.8-2.8-1.4-4.1-.7-1.6-1.6-3.1-2.9-4.4-1.3-1.4-3.4-2.5-5-3-5.1-1.2-8.6-.4-8.6-.4s-1.2 9.6-2.9 22.5c0 0-3.9 4.9-5.3 6.8-.4.4-.7 1-1.1 1.4-.2.2-.3.4-.5.6l-.6.6c-.8.8-1.7 1.5-2.6 2.2-1.8 1.4-3.8 2.7-5.7 4-.5.3-1 .7-1.4 1.1-.5.4-.8.9-1.2 1.3-.4.5-.7.9-1 1.4l-.5.8-.2.4-.1.1-.2-.3-.3-.6c-.2-.4-.5-.7-.8-1l-1.8-1.8c-1.3-1.1-2.6-2.2-4-3.2s-2.8-1.9-4.2-2.8c-1.4-.9-2.9-1.7-4.2-2.7-2.7-2-4.5-4.6-6.6-7.1-1.1-1.3-1.7-3.5-1.9-4.9-.1-1 .6-10.8-.2-17.9 0-.4-.7-.9-5.6-1.1-5 .1-8.8 3.3-10.4 4.9-1.5 1.6-3.1 3.3-3.9 5.6-.4 1.1-.5 2.4-.7 3.4-.1.9-.3 1.4-.7 1.9-1.7.4-3.3 1.3-4.5 2.5-1.4 1.4-2.3 3-2.9 4.7-.7 1.7-1.1 3.4-1.5 4.9-.2.8-.5 1.5-.8 2.1-.1.3-.3.4-.4.5 0 0-.1 0-.1.1l-.6.1c-3.3.8-6.6 1.9-9.8 3.4-3.1 1.6-6 3.6-8.4 6.2-2.4 2.6-4.2 5.7-5.3 9-.3.8-.5 1.7-.7 2.5l-.1.7c0 .1 0 .2-.1.4v.3l-.2 1.3c-.2 1.7-.3 3.4-.5 5-.5 6.7-.6 13.4-.5 20.1 0 .4.1 1.3.5 1.3 13.4-.2 160.9.2 160.9.2.8 0 1.5-.7 1.5-1.5-.1-5-.2-10.3-.6-15.6zm-27.8-33.4zm-28.8-26.1c1 .6 4.7 2.5 6 5.1.1.8.2 1.8 0 2.6s-.6 1.5-1.1 2.3c-2.1 2.6-6.1 6.3-6.5 6.8 5.1-8.8 1.6-16.8 1.6-16.8zm-50.4 17.7c.9 1.4 4 4.3 5 5.5-.4-.3-3.9-3-4.3-3.2-1.2-.8-1.8-1.7-2.7-2.9-1.8-2.2-2.7-5.1-3.4-8-.3-1.4-.6-2.9.3-3.8 2.2-1.5 5.9-2 6.1-2.1.2 2.7-3.2 5.8-3.1 8.5-.1.3-.1.4-.1.7v.8c.1.5.2 1 .3 1.4.3.7 1.4 2.3 1.9 3.1zM48 171.8c.5-.9.8-1.8 1-2.6.5-1.7.8-3.2 1.4-4.7.5-1.5 1.3-2.8 2.3-3.8s2.3-1.7 3.7-2c.2 0 .3-.1.5-.2.1 1.1.2 2.2.4 3.3.3 1.7.7 3.4 1.4 5 .3.9.8 1.6 1.2 2.4.5.7 1 1.5 1.5 2.2 2.3 2.8 5.1 4.8 8.2 6.4 3.1 1.6 6.3 2.8 9.7 3.4-3.1-1.4-6.1-3-8.9-4.8-1.4-.9-2.8-1.8-4-2.9-1.3-1.1-2.5-2.2-3.4-3.4-.5-.6-1-1.3-1.4-1.9-.4-.7-.8-1.4-1.1-2.1-.7-1.4-1.1-3.1-1.6-4.6-.4-1.4-.7-2.9-.9-4.3.1-.2-.8-5.1 4.4-9.9 1.4-1.5 3-2.8 4.6-3.8 4.2-2.4 6.8-1.4 8.1-1.2.1 2 .2 3.1.3 5.1-.3.1-4.2 1-4.5 1.1-.7.3-1.5.5-2.2 1.1-.7.5-1.1 1.5-1.2 2.3-.1.9 0 1.7.1 2.5.4 3.1 1.3 6.3 3.3 8.9 1 1.3 2.3 2.4 3.6 3.2l3.9 2.4c1.3.8 2.6 1.5 3.9 2.2.8.6 1.5 1.2 2.3 1.7 1.4 1 2.9 1.8 4.4 2.6 1.4.8 2.9 1.7 4.3 2.6s2.8 1.9 4.1 2.9c.7.5 1.3 1.1 1.9 1.7.3.3.6.6.8.9.1.2.2.3.3.5l.2.3c.1.1.2.3.3.4 0 0 .1 0 .2-.1v-.1l.1-.1.1-.2.2-.4.5-.7c.3-.5.7-.9 1.1-1.4.4-.4.8-.9 1.2-1.2.4-.3.9-.7 1.4-1 2-1.2 4-2.4 5.9-3.8 1-.7 1.9-1.4 2.8-2.2.2-.2.4-.4.7-.6.2-.2.4-.4.6-.7.4-.5.7-.9 1.1-1.4 1.5-1.7 3.2-3.3 4.9-4.9l2.6-2.4c.7-.7 3.2-2.8 3.6-3.2 1.5-1.3 2.8-2.7 3.8-4.5 1-1.8.9-4 .2-6.1-1.1-2.4-5.6-5-6.9-5.8l-.1-2.5c.2.1 4.4-.9 8.1 1.4 2.5 1.6 4.6 5.3 5.3 6.7.6 1.4 1.1 2.9 1.4 4.4.1.5.5.9 1 1.1.1 0 .1 0 .2.1-.2 2-.6 4-1.4 5.8-.6 1.5-1.3 2.9-2.3 4-1 1.2-2.2 2.3-3.4 3.3-.6.5-1.2 1-1.8 1.6l-1.9 1.5c-1.3 1-2.6 2-3.9 2.9-2.6 1.9-5.3 3.8-7.9 5.8 3.1-1.3 6-2.8 8.8-4.5 2.8-1.7 5.6-3.6 8.1-5.8.6-.6 1.3-1.1 1.8-1.7l.9-.9.8-1c1.1-1.4 1.8-3 2.3-4.7.6-2 .8-4 .7-6.1 1.4.5 2.6 1.1 3.7 2.1 1.4 1.1 2.4 2.6 3.3 4.2.9 1.6 1.5 3.3 1.7 5.1.1.9.2 1.8.2 2.8 0 .5 0 1 .1 1.6 0 .3.1.6.2 1.1.1.2.2.5.4.7l.1.1-1.4 1.4c-.9.8-1.9 1.6-2.8 2.4-1.9 1.6-3.9 3.1-5.9 4.5-2 1.4-4 2.9-6.1 4-1.1.6-2.1 1.1-3.2 1.5-1.1.4-2.3.8-3.5 1.1-2.4.7-4.8 1.3-7.2 1.8-2.4.6-4.8 1.1-7.2 1.5l-3.6.6c-.6.1-1.2.1-1.7.1-.6 0-1.1-.2-1.6-.4l-.2-.1c.3-1.1.6-2.3 1-3.3.1-.2 0-.5-.1-.7s-.4-.3-.7-.3c-.5 0-.9.3-1.2.6.3-.4.8-.6 1.2-.6.2 0 .5.1.6.3.1.2.2.4.1.7-.5 1.2-.8 2.4-1.2 3.7-.3 1.2-.6 2.6-.4 3.9.2 2.6.6 5.1 1.1 7.7.1.6.3 1.3.4 1.9l.3.9c.1.3.2.6.2.9.2 1.2.2 2.5.2 3.8-.1 1.3-.2 2.6-.3 3.8-.1.6-.2 1.3-.3 1.9 0 .1-.1.3-.1.4-.1 0-.4 0-.6-.1-.5-.2-1-.6-1.3-1-.1-.1-.1-.2-.2-.3v-.3c0-.3.1-.6.1-.9.2-1.3.4-2.5.6-3.8.1-.6.2-1.3.2-1.9 0-.6 0-1.4-.1-2l-.8-3.8c-.5-2.5-1.1-5.1-1.4-7.6-.1-.6-.1-1.3-.1-1.9 0-.5.1-.9.2-1.4 0 0 .1-.4.1-.5.2-.6.3-1.2.6-1.9-.2.6-.4 1.2-.6 1.9 0 .1-.1.3-.1.4-1-.6-2.1-.9-3.3-1.1-1.3-.2-2.5-.3-3.8-.5.2-.8.4-1.5.7-2.2 0-.2-.1-.5-.2-.7s-.2-.4-.5-.6c-.5-.2-1 0-1.4.3.4-.2.9-.4 1.3-.2s.5.8.5 1.2c-.5 1.2-1 2.4-1.2 3.8-.1.6-.2 1.4-.1 2 .1.7.2 1.3.3 2 .4 2.6.9 5.2 1.4 7.8l.3 1.9c.1.6.2 1.3.2 1.9-.1 1.2-.4 2.5-.8 3.7-.4 1.2-.8 2.5-1.2 3.7-.2.6-.5 1.2-.7 1.8-.1.1-.1.2-.2.4-.2-.1-.4-.1-.7-.3-.3-.1-.6-.3-.8-.5-.1-.1-.2-.2-.4-.3l-.1-.1c0-.2.1-.5.2-.8l.3-.9 1.3-3.7c.4-1.3.8-2.5 1-3.9.2-1.4.1-2.7 0-4-.2-2.6-.7-5.2-1.2-7.8-.6-1.8-.6-3.9-.1-5.7h.1s0-.1-.1-.1c.2-.6.4-1.2.7-1.8-.3.5-.6 1.1-.8 1.7-.5-.6-.8-1.4-.6-1.9.2-.6.8-1 1.6-.9.7 0 1.4.4 2 .9.3.3.5.6.6 1 .1.3-.1.7-.5 1 .2 0 .5-.1.7-.3s.3-.5.3-.7c0-.5-.2-1-.5-1.4-.6-.8-1.5-1.4-2.5-1.5-.5 0-1.1.1-1.6.4s-.8.8-.8 1.4c-.1 1.1.6 1.8 1.4 2.2-.1.4-.2.7-.3 1.1l-5.5-.7c-2.6-.4-5.2-.6-7.8-1-2.6-.4-5.2-.8-7.7-1.3-1.3-.2-2.5-.5-3.7-.9-1.2-.3-2.4-.9-3.6-1.4-2.4-1-4.7-2.3-6.9-3.5-2.3-1.3-4.5-2.6-6.7-4-1.1-.7-2.2-1.4-3.2-2.2l-1.5-1.2-.6-.6c-.1-1 .1-1.3.3-1.6zm52 47.5-20.1.2-20.1.1c-13.2.1-26.3 0-39.5-.2.1-6.4.4-12.9 1.1-19.3.2-1.6.4-3.3.6-4.9l.2-1.2v-.3c0-.1 0-.2.1-.3l.1-.6c.2-.8.4-1.5.7-2.3 1.1-3 2.8-5.7 5-8s4.9-4.1 7.8-5.5c2.9-1.4 6-2.5 9.1-3.2l.6-.1c.4-.1.7-.2 1-.5.2-.1.3-.2.4-.4.5.8 1.2 1.4 1.9 2.1 1 .9 2 1.8 3 2.6 2.1 1.6 4.2 3.1 6.5 4.6 2.2 1.4 4.5 2.7 6.9 3.9 1.2.6 2.4 1.1 3.8 1.5 1.3.4 2.6.7 3.9 1 5.2 1 10.4 1.6 15.7 1.9 2.2.1 3.4.2 5.5.2-.1 1.2 0 2.5.2 3.7.5 2.6.8 5.2.9 7.8.1 1.3.1 2.6-.1 3.9-.2 1.2-.6 2.5-1 3.7l-1.3 3.7c-.1.3-.2.6-.3 1-.1.3-.2.6-.2 1.1v.3c0 .1.1.2.1.2l.1.1c.1.1.2.1.2.2.1.1.3.2.4.3.3.2.6.4.9.5.3.2.6.3 1.1.4h.4c.2-.1.2-.1.3-.2.1-.1.2-.2.2-.3.1-.2.2-.3.2-.5.3-.6.5-1.2.7-1.9.4-1.2.8-2.5 1.2-3.8.3-1.3.7-2.6.8-4 0-.8-.2-1.4-.3-2-.1-.6-.2-1.3-.4-1.9-.5-2.6-1.1-5.1-1.6-7.7-.1-.6-.2-1.3-.3-1.9-.1-.6-.1-1.3 0-1.9 0-.2.1-.4.1-.6 2.4.1 4.9-.1 7.2.7-.1.5-.2.9-.2 1.4-.1.6 0 1.3.1 1.9.3 2.6.7 5.1 1.1 7.7l.6 3.8c.2 1.2-.1 2.5-.3 3.7l-.7 3.8c-.1.3-.1.6-.1 1 0 .1 0 .5.1.7.1.2.2.4.3.5.5.6 1.1 1 1.7 1.3.3.1.7.3 1.3.2.3-.1.6-.4.7-.6.1-.2.1-.4.1-.5.1-.7.2-1.3.3-2 .2-1.3.2-2.6.3-3.9 0-1.3 0-2.6-.3-3.9-.1-.3-.2-.7-.3-1l-.3-.9c-.2-.6-.4-1.2-.5-1.9-.6-2.5-1.1-5-1.5-7.6-.2-1-.1-2.1.2-3.1.6.3 1.3.5 1.9.6.3.1.7.1 1 .1h1c1.3 0 2.5-.2 3.8-.3 5-.6 9.9-1.6 14.7-2.9 1.2-.4 2.4-.7 3.6-1.2 1.2-.4 2.4-1 3.5-1.7 2.2-1.3 4.2-2.8 6.1-4.4 1.9-1.6 3.8-3.2 5.6-5 .9-.9 1.8-1.8 2.6-2.8.4-.5.8-1 1.2-1.6.2.1.4.3.6.4.1 0 .1.1.2.1 5 1.4 9.9 2.9 14.2 5.5 4.3 2.5 7.7 6.2 9.6 10.7.4 1.1.8 2.3 1.1 3.5l.1.4v.4l.1.9.2 1.9c.3 2.6.5 5.1.7 7.7.3 4.7.5 9.4.5 14.1l-38.6.2c-13.2.2-26.6.4-40 .6zm4.7-30.4c-.3-.4-.4-.8-.4-1.1 0-.4.1-.7.3-1 .4-.5 1.2-.7 1.9-.6.7.1 1.5.5 1.8 1.1.2.3.2.6.1 1s-.4.7-.7 1.1c.4-.1.8-.4 1.1-.9.3-.4.3-1.1.1-1.6-.4-1-1.4-1.6-2.4-1.8-.5-.1-1-.1-1.5.1s-1 .5-1.2 1c-.2.4-.3 1-.2 1.5.3.6.7 1 1.1 1.2zM41 209.2c-.7-2.7-1.6-5.3-2.8-7.8-1.2-2.5-2.7-4.9-4.5-7-1.8-2.1-3.8-4.1-6.2-5.4 1.1.8 2.1 1.8 3 2.8 1 1 1.8 2 2.6 3.1 1.6 2.2 3 4.5 4.2 7 .6 1.2 1.2 2.4 1.6 3.7.5 1.2.9 2.6 1.4 3.8.4 1.3.7 2.6 1.1 3.9.3 1.3.6 2.7.9 4-.1-1.4-.3-2.7-.5-4.1-.2-1.3-.4-2.6-.8-4zm125.6-13.9c-1.8 1.9-3.3 4.1-4.5 6.4-1.2 2.3-2.2 4.8-3 7.3-.4 1.2-.6 2.5-1 3.8l-.6 3.9c.4-1.2.7-2.5 1.1-3.7.4-1.2.8-2.5 1.2-3.7.2-.6.5-1.2.7-1.8s.5-1.2.8-1.8c.5-1.2 1.1-2.3 1.7-3.5 1.2-2.2 2.6-4.4 4.2-6.4.8-1 1.7-1.9 2.6-2.9.9-.9 1.9-1.8 3-2.4-2.4 1.1-4.4 2.9-6.2 4.8z" fill="#184f58" stroke-width="none" opacity="1"></path></g><g id="svga-group-head" transform="matrix(1,0,0,1,0,0)"><g id="svga-group-ears-left-move" transform="matrix(1,0,0,1,0,0)"><g id="svga-group-ears-left" transform="matrix(1,0,0,1,0,0)"><path id="SvgjsPath4576" d="M62.2 95.2s-4.4-4.7-5.8-6.2-3.1-4.7-5-4.1c-1.9.5-1.2 2.7-1.3 5.8-.1 3.1.3 9.1 2.2 12.4s2.9 4.5 3.5 8 2.8 4.2 4.1 3.2 4.3-7 4.4-10.2c0-3.2-1.3-7.6-2.1-8.9z" fill="#f0c7b1" stroke-width="none" opacity="1" stroke="none"></path><path id="SvgjsPath4577" d="M63.1 97.3c.3.8.5 1.5.7 2.3.4 1.6.7 3.2.7 4.9 0 .8-.2 1.6-.3 2.3l-.6 2.1c-.5 1.3-1.1 2.6-1.7 3.8-.3.6-.7 1.1-1.1 1.7-.2.2-.5.5-.8.7s-.6.3-.9.3c-.7.1-1.4-.1-2-.7s-1.1-1.4-1.4-2.3l-.2-.7-.1-.7c-.1-.4-.1-.8-.2-1.1-.2-.7-.4-1.5-.6-2.1-.5-1.4-1.3-2.7-2.1-4-.4-.6-.8-1.4-1-2.2-.3-.8-.5-1.6-.7-2.4-.3-1.6-.6-3.2-.7-4.8-.2-1.6-.2-3.2-.2-4.7 0-.8-.1-1.5-.1-2.4 0-.4 0-.8.1-1.3.1-.4.2-.9.5-1.2.2-.3.5-.5.8-.6s.6-.2 1-.2c.7.1 1.3.5 1.9 1 1.1 1 1.9 2.4 2.7 3.5 1.9 2.2 3.7 4.4 5.6 6.5.1.8.4 1.6.7 2.3zm-7-7.9c-1.1-1-1.9-2.3-2.8-3.1-.5-.4-.9-.7-1.4-.8-.4 0-.9.1-1.2.4s-.4.9-.4 1.7v2.3c0 .8-.1 1.5-.1 2.3s0 1.5.1 2.3c.1 1.6.3 3.1.7 4.7.4 1.5 1 3 1.8 4.2.8 1.3 1.7 2.5 2.4 4 .3.8.6 1.6.8 2.4l.3 1.2.1.5.2.5c.2.6.6 1.1 1 1.4s.9.4 1.3.3c.2 0 .4-.1.6-.2.2-.1.3-.3.5-.5.3-.4.7-1 1-1.5.6-1.1 1.2-2.3 1.7-3.5s1-2.5 1.2-3.8c.2-1.4 0-3-.2-4.5-.1-.8-.3-1.6-.5-2.3-.2-.8-.5-1.5-.9-2.1-2.2-2.1-4.2-4-6.2-5.9z" fill="#e1ac8f" stroke-width="none" opacity="1" stroke="none"></path><path id="SvgjsPath4578" d="M50.4 89.6c.5-1.9 2.1-1 3 .4 1.9 2.6 3.2 6.6 3.6 10 0 .1-.1.2-.1.1-.1.1-.2.1-.2-.1-1.2-.5-1.6-.2-1.2.8 0 .3.1.6.3.9.2.5.6 1 .9 1.5.5.8 1.2 1.5 1.7 2.3.2.3 0 .6-.2.4-1.4-1-3.9-4.3-3.2-6.6.3-.8 1-1.1 1.5-.7-1.1-3.6-4-12-5.8-8.8-.2.1-.3-.1-.3-.2z" fill="#d19271" stroke-width="none" opacity="1" stroke="none"></path><path id="SvgjsPath4579" d="M53.3 90.1c-1 2-1.4 4.4-.9 7.1.3 1.5 2.9 9.5 4.9 8.4.2-.1.4.3.2.5-2 1.8-4.2-4.5-4.9-6.5-1.1-3.4-1.4-7.5.5-9.7.1-.1.2 0 .2.2z" fill="#d19271" stroke-width="none" opacity="1" stroke="none"></path></g></g><g id="svga-group-ears-right-move" transform="matrix(1,0,0,1,0,0)"><g id="svga-group-ears-right" transform="matrix(1,0,0,1,0,0)"><path id="SvgjsPath4580" d="M138.08 95.16s4.4-4.7 5.8-6.2 3.1-4.7 5-4.1c1.9.5 1.2 2.7 1.3 5.8.1 3.1-.3 9.1-2.2 12.4s-2.9 4.5-3.5 8-2.8 4.2-4.1 3.2-4.3-7-4.4-10.2c0-3.2 1.3-7.6 2.1-8.9z" fill="#f0c7b1" stroke-width="none" opacity="1" stroke="none"></path><path id="SvgjsPath4581" d="M137.9 95.1c1.9-2 3.8-4.3 5.6-6.5.9-1 1.6-2.4 2.7-3.5.5-.5 1.2-1 1.9-1 .3 0 .7 0 1 .2.3.1.6.3.8.6.2.3.4.8.5 1.2.1.4.1.9.1 1.3 0 .8-.1 1.6-.1 2.4 0 1.5-.1 3.2-.2 4.7-.1 1.6-.4 3.2-.7 4.8-.2.8-.4 1.6-.7 2.4s-.6 1.5-1 2.2c-.7 1.3-1.5 2.7-2.1 4-.3.7-.5 1.4-.6 2.1-.1.4-.1.7-.2 1.1l-.1.7-.2.7c-.3.9-.8 1.7-1.4 2.3-.6.5-1.4.8-2 .7-.3 0-.6-.1-.9-.3-.3-.2-.6-.5-.8-.7-.4-.5-.8-1.1-1.1-1.7-.6-1.2-1.2-2.4-1.7-3.8-.2-.7-.5-1.4-.6-2.1-.2-.7-.3-1.5-.3-2.3 0-1.7.3-3.3.7-4.9.2-.8.4-1.6.7-2.3 0-.8.3-1.6.7-2.3zm.1.1c-.4.6-.6 1.4-.9 2.1-.2.8-.4 1.5-.5 2.3-.3 1.5-.4 3.1-.2 4.5s.7 2.6 1.2 3.8c.5 1.2 1.1 2.4 1.7 3.5.3.5.6 1.1 1 1.5.2.2.3.4.5.5s.4.2.6.2c.4.1.9 0 1.3-.3s.7-.8 1-1.4l.2-.5.1-.5.3-1.2c.2-.8.5-1.6.8-2.4.7-1.5 1.6-2.8 2.4-4 .8-1.2 1.4-2.6 1.8-4.2.4-1.5.6-3.1.7-4.7.1-.8.1-1.6.1-2.3 0-.8-.1-1.5-.1-2.3v-2.3c0-.7-.1-1.4-.4-1.7-.3-.3-.8-.5-1.2-.4-.4 0-.9.4-1.4.8-.9.8-1.8 2.1-2.8 3.1-2.3 2-4.3 3.9-6.2 5.9z" fill="#e1ac8f" stroke-width="none" opacity="1" stroke="none"></path><path id="SvgjsPath4582" d="M149.6 89.6c-.5-1.9-2.1-1-3 .4-1.9 2.6-3.2 6.6-3.6 10 0 .1.1.2.1.1.1.1.2.1.2-.1 1.2-.5 1.6-.2 1.2.8 0 .3-.1.6-.3.9-.2.5-.6 1-.9 1.5-.5.8-1.2 1.5-1.7 2.3-.2.3 0 .6.2.4 1.4-1 3.9-4.3 3.2-6.6-.3-.8-1-1.1-1.5-.7 1.1-3.6 4-12 5.8-8.8.2.1.3-.1.3-.2z" fill="#d19271" stroke-width="none" opacity="1" stroke="none"></path><path id="SvgjsPath4583" d="M146.7 90.1c1 2 1.4 4.4.9 7.1-.3 1.5-2.9 9.5-4.9 8.4-.2-.1-.4.3-.2.5 2 1.8 4.2-4.5 4.9-6.5 1.1-3.4 1.4-7.5-.5-9.7-.1-.1-.2 0-.2.2z" fill="#d19271" stroke-width="none" opacity="1" stroke="none"></path></g></g><g id="svga-group-faceshape-wrap" transform="matrix(1,0,0,1,0,0)"><g id="svga-group-faceshape-single"><path id="SvgjsPath7877" d="M100 35.3c-22.5 0-41.9 16.4-43.2 46.4v.3c0 2.2-1.4 19.3.9 31.5 2.4 13.2-.3 25.4 12.2 32.1s26.8 7.6 30.1 7.6 17.5-.9 30.1-7.6 9.5-18.9 11.9-32.1c2.3-12.2 1.1-29.3 1.2-31.5v-.3c-1.3-29.9-20.7-46.4-43.2-46.4z" fill="#f0c7b1" stroke-width="none" opacity="1"></path><path id="SvgjsPath7878" d="M69.9 145.6c12.5 6.7 26.8 7.6 30.1 7.6s17.5-.9 30.1-7.6c12.6-6.7 9.5-18.9 11.9-32.1 2.3-12.2 1.1-29.3 1.2-31.5v-.3c-1.3-29.9-20.7-46.4-43.2-46.4S58.1 51.7 56.8 81.7v.3c0 2.2-1.4 19.3.9 31.5 2.4 13.2-.3 25.4 12.2 32.1zM58.5 95c.1-3.4.3-6.9.4-10.4 0-.9.1-1.7.1-2.7 0-.8.1-1.7.2-2.5l.2-2.5c.1-.8.2-1.7.4-2.5l.4-2.5c.1-.8.4-1.6.6-2.5l.6-2.5c.2-.8.5-1.6.8-2.4.3-.8.5-1.6.8-2.4l1-2.3c.6-1.6 1.5-3 2.2-4.5.4-.8.9-1.4 1.3-2.1.5-.7.9-1.4 1.4-2.1l1.6-2 .8-1 .9-.9 1.8-1.8c.6-.6 1.3-1.1 2-1.6 1.3-1.1 2.8-2 4.2-2.9 5.9-3.5 12.9-5.2 19.9-5.3 6.9.1 13.9 1.8 19.8 5.3 1.4 1 2.9 1.8 4.2 2.9.7.5 1.3 1.1 2 1.6l1.8 1.8.9.9.8 1 1.6 2c.5.7.9 1.4 1.4 2.1.4.7 1 1.4 1.3 2.1.8 1.5 1.6 2.9 2.2 4.5 0 0 1.5 3.9 1.8 4.7l1.2 4.9c.2.8.4 1.6.5 2.5 0 0 .7 4.2.7 5l.2 2.5s.1 2.3.1 2.4v2.7c.1 3.5.1 6.9.1 10.4-.1 3.4-.2 8.9-.6 12.2-.2 1.7-.4 3.4-.7 5-.1.8-.3 1.8-.4 2.6-.2.9-.2 1.8-.3 2.7-.4 3.6-.5 7.1-.8 10.4-.4 3.3-.9 6.6-2.4 9.2-1.4 2.7-3.6 4.8-6.4 6.4-2.9 1.6-6 3-9.2 4.1s-6.5 2-9.9 2.7c-3.3.7-6.8 1.2-10.1 1.4-3.4 0-6.8-.3-10.2-.8-3.4-.5-6.8-1.2-10.1-2.3-3.3-1-6.5-2.3-9.5-4-3-1.6-5.5-4-7.1-6.9-.4-.7-.7-1.5-1-2.3-.2-.8-.5-1.6-.7-2.4-.2-.8-.4-1.7-.5-2.5-.2-.8-.2-1.7-.3-2.5-.3-3.4-.4-6.9-.7-10.5-.1-1.7-.4-3.6-.6-5.3-.1-.8-.2-1.7-.3-2.5s-.2-1.7-.2-2.6c-.3-3.1-.3-8.6-.2-12z" fill="#c27b55" stroke-width="none" opacity="1"></path></g></g><g id="svga-group-mouth-single-move" transform="matrix(1,0,0,1,0,0)"><g id="svga-group-mouth-single" transform="matrix(1,0,0,1,0,0)"><path id="SvgjsPath4486" d="M89.47 129.26c7.15 4.25 15.5 3.75 21.52.68.34-.17.08-.61-.24-.56-3.56.54-6.71 1.36-10.36 1.39-3.63.03-7.5-.8-10.8-1.91-.31-.1-.22.35-.12.4z" fill="#d19271" stroke-width="none" opacity="1" transform="translate(0 2)" stroke="none"></path><path id="SvgjsPath4487" d="M108.72 128.48c-2.29.41-4.47 1.09-6.8 1.27-2.34.18-4.58-.1-6.9-.33-.24-.02-.29.35-.08.41 4.27 1.17 9.93 1.12 13.97-.81.32-.15.12-.59-.19-.54z" fill="#f8d5c3" stroke-width="none" opacity="1" transform="translate(0 2)" stroke="none"></path><path id="SvgjsPath4488" d="M99.53 122.55c-3.63-.05-7.67.28-9.65.6-3.06.5-4.82-.23-4.95.4-.09.41 5.65 1.29 7.28 1.43 1.63.13 4.66 1.62 7.09 1.88 2.43.27 4.02-.95 5.95-1.39 1.93-.43 6.6-.78 8.04-1 1.9-.26 3.41-1.29.32-1.14-.46.02-.93.01-1.39-.03-2.66-.26-8.31-.69-12.69-.75z" fill="#da7c87" stroke-width="none" opacity="1" transform="translate(0 2)" stroke="none"></path></g></g><g id="svga-group-eyes-left-move" transform="matrix(1,0,0,1,0,0)"><g id="svga-group-eyes-left" transform="matrix(1,0,0,1,0,0)"><g id="svga-group-eyesback-left"><path id="SvgjsPath5164" d="M90.2 96.4s-.9.8-3.3 1.1-8.7 1.1-13.3-.2c-4.6-1.3-4.2-1.5-4.3-2.1-.1-.5.7-2.4 5-3.2 4.3-.8 8.5.1 10.6.9 2 .9 5.3 3.5 5.3 3.5z" fill="#ffffff" stroke-width="none" opacity="1"></path></g><g id="svga-group-eyesiriswrapper-left" transform="matrix(1,0,0,1,0,0)"><g id="svga-group-eyesiriscontrol-left" transform="matrix(1,0,0,1,0,0)"><g id="svga-group-eyesiris-left" transform="matrix(1,0,0,1,0,0)"><path id="SvgjsPath3490" d="M80.1 88.4c2.8 0 5.2 2.3 5.2 5.2s-2.3 5.2-5.2 5.2-5.2-2.3-5.2-5.2 2.3-5.2 5.2-5.2z" fill="#2844aa" stroke-width="none" opacity="1" stroke="none"></path><path id="SvgjsPath3491" d="M80.1 90.8c1.5 0 2.8 1.2 2.8 2.8s-1.2 2.8-2.8 2.8-2.8-1.2-2.8-2.8 1.2-2.8 2.8-2.8z" fill="#000000" stroke-width="none" opacity="1"></path><path id="SvgjsPath3492" d="m79.4 91.3-.6-.6c-.2-.2-.4-.3-.7-.3-.2 0-.5.1-.7.3-.2.2-.3.4-.3.7s.1.5.3.7l.6.6c.2.2.4.3.7.3.2 0 .5-.1.7-.3.3-.5.4-1.1 0-1.4zm2.5 4.7c.9 0 .9-1.4 0-1.4s-.8 1.4 0 1.4z" fill="#ffffff" stroke-width="none" opacity="1"></path></g></g></g><g id="svga-group-eyesfront-left"><path id="SvgjsPath5172" d="M73.6 97.3c4.6 1.3 10.9.5 13.3.2 2.4-.3 3.3-1.1 3.3-1.1s-3.2-2.6-5.3-3.5c-2.1-.9-6.3-1.7-10.6-.9-3.2.6-4.4 1.8-4.8 2.5 0-6.3 4.8-11.5 10.6-11.5 5.9 0 10.6 5.2 10.6 11.5S86 106 80.1 106c-5.5 0-10-4.5-10.6-10.4.3.5 1.2.8 4.1 1.7z" fill="#f0c7b1" stroke-width="none" opacity="1" stroke="none"></path><path id="SvgjsPath5173" d="M90.1 95.9c-1.2-3.3-4.1-5.6-7.5-6.2-3.9-.7-7.5 1-10.7 2.9-.1 0-.2-.1-.1-.1 5.5-4.7 16.4-4.9 18.5 3.5-.1-.1-.2 0-.2-.1z" fill="#e1ac8f" stroke-width="none" opacity="1" stroke="none"></path><path id="SvgjsPath5174" d="M90.2 96.6c-5.3-4.4-12.4-6.2-18.9-3.1-.3.1-.5.3-.8.4-1 1.3-.9 2.1.4 2.2.7.2 1.4.4 2.1.5 1.8.4 3.7.6 5.6.7 3.4.2 6.7-.1 10-.4.2 0 .2.2 0 .3-4.4 1.4-9.2 1.3-13.7.7-1.6-.2-8.7-.9-5.9-4.3 1-1.2 3.2-1.7 4.7-2 2.1-.5 4.2-.6 6.3-.4 3.8.5 7.7 2.3 10.3 5.2.2.1 0 .3-.1.2z" fill="#7b8b96" stroke-width="none" opacity="1" stroke="none"></path></g></g></g><g id="svga-group-eyes-right-move" transform="matrix(1,0,0,1,0,0)"><g id="svga-group-eyes-right" transform="matrix(1,0,0,1,0,0)"><g id="svga-group-eyesback-right"><path id="SvgjsPath5165" d="M109.8 96.4s.9.8 3.3 1.1 8.7 1.1 13.3-.2c4.6-1.3 4.2-1.5 4.3-2.1.1-.5-.7-2.4-5-3.2-4.3-.8-8.5.1-10.6.9-2 .9-5.3 3.5-5.3 3.5z" fill="#ffffff" stroke-width="none" opacity="1"></path></g><g id="svga-group-eyesiriswrapper-right" transform="matrix(1,0,0,1,0,0)"><g id="svga-group-eyesiriscontrol-right" transform="matrix(1,0,0,1,0,0)"><g id="svga-group-eyesiris-right" transform="matrix(1,0,0,1,0,0)"><path id="SvgjsPath3493" d="M119.9 88.4c2.8 0 5.2 2.3 5.2 5.2s-2.3 5.2-5.2 5.2-5.2-2.3-5.2-5.2 2.4-5.2 5.2-5.2z" fill="#2844aa" stroke-width="none" opacity="1" stroke="none"></path><path id="SvgjsPath3494" d="M119.9 90.8c1.5 0 2.8 1.2 2.8 2.8s-1.2 2.8-2.8 2.8-2.8-1.2-2.8-2.8 1.3-2.8 2.8-2.8z" fill="#000000" stroke-width="none" opacity="1"></path><path id="SvgjsPath3495" d="m119.3 91.3-.6-.6c-.2-.2-.4-.3-.7-.3-.2 0-.5.1-.7.3-.2.2-.3.4-.3.7s.1.5.3.7l.6.6c.2.2.4.3.7.3.2 0 .5-.1.7-.3.3-.5.4-1.1 0-1.4zm2.5 4.7c.9 0 .9-1.4 0-1.4s-.9 1.4 0 1.4z" fill="#ffffff" stroke-width="none" opacity="1"></path></g></g></g><g id="svga-group-eyesfront-right"><path id="SvgjsPath5175" d="M126.4 97.3c-4.6 1.3-10.9.5-13.3.2-2.4-.3-3.3-1.1-3.3-1.1s3.2-2.6 5.3-3.5c2.1-.9 6.3-1.7 10.6-.9 3.2.6 4.4 1.8 4.8 2.5 0-6.3-4.8-11.5-10.6-11.5-5.9 0-10.6 5.2-10.6 11.5S114 106 119.9 106c5.5 0 10-4.5 10.6-10.4-.3.5-1.2.8-4.1 1.7z" fill="#f0c7b1" stroke-width="none" opacity="1" stroke="none"></path><path id="SvgjsPath5178" d="M109.9 95.9c1.2-3.3 4.1-5.6 7.5-6.2 3.9-.7 7.5 1 10.7 2.9.1 0 .2-.1.1-.1-5.5-4.7-16.4-4.9-18.5 3.5.1-.1.2 0 .2-.1z" fill="#e1ac8f" stroke-width="none" opacity="1" stroke="none"></path><path id="SvgjsPath5179" d="M109.8 96.6c5.3-4.4 12.4-6.2 18.9-3.1.3.1.5.3.8.4 1 1.3.9 2.1-.4 2.2-.7.2-1.4.4-2.1.5-1.8.4-3.7.6-5.6.7-3.4.2-6.7-.1-10-.4-.2 0-.2.2 0 .3 4.4 1.4 9.2 1.3 13.7.7 1.6-.2 8.7-.9 5.9-4.3-1-1.2-3.2-1.7-4.7-2-2.1-.5-4.2-.6-6.3-.4-3.8.5-7.7 2.3-10.3 5.2-.2.1 0 .3.1.2z" fill="#7b8b96" stroke-width="none" opacity="1" stroke="none"></path></g></g></g><g id="svga-group-facehighlight-single"></g><g id="svga-group-eyebrows-left-move" transform="matrix(1,0,0,1,0,0)"><g id="svga-group-eyebrows-left-rotate" transform="matrix(1,0,0,1,0,0)"><g id="svga-group-eyebrows-left" transform="matrix(1,0,0,1,0,0)"><path id="SvgjsPath3339" d="M67 82.5c.1-.3.3-.6.5-.8.1-.2.3-.5.5-.7.2-.2.4-.4.7-.6.5-.9 1.7-1.6 2.5-2.1.9-.5 1.8-.9 2.9-.9 1-.2 2.1-.2 2.9.2.4 0 .7.1 1 .3 1.1-.1 2.3.2 3.3.4 1.4.3 2.8.6 4.1 1.2 1.4 0 2.8.1 4.1.5h.2c.1 0 .2.1.2.1h.1c.1 0 .2.1.3.2.1.1 0 .3 0 .4v.1c0 .2 0 .4-.1.6 0 .6-.1 1.1-.5 1.6 0 .1 0 .2-.1.3-.1.5-.2 1.1-.7 1.4-.2.2-.5.3-.8.3-.1 0-.2 0-.3-.1h-.6c-.6.2-1.4 0-1.9-.1-.6-.1-1.2-.3-1.7-.6-1.8-.3-3.5-.8-5.3-1.2-1.6-.4-4-.4-5.4-1.3-.7.1-1.3.2-2 .2-.3 0-.7.1-1.1 0-.2 0-.5 0-.7-.2 0 0-.1 0-.1-.1h-.1l-.4.4c-.3.3-.7.7-1.2.8-.1.2-.3 0-.3-.3z" fill="#decfbc" stroke-width="none" opacity="1" stroke="none"></path><path id="SvgjsPath3340" d="M87.7 83c-.1-.6-.2-1.2-.4-1.7 0-.2.2-.3.3-.1.7 1 .9 2.8.2 3.9-.1.2-.3.1-.3-.1.1-.8.2-1.4.2-2zm-3.4-3.2c1.3.8 2.1 2.6 2.1 4 0 .2-.3.3-.3.1-.2-.7-.4-1.3-.7-1.9-.3-.7-.9-1.2-1.3-1.9-.3-.2 0-.4.2-.3zm-3.3-.7c2.2.8 3.8 3.2 4.2 5.3 0 .2-.2.2-.3.1-.4-1-.9-2-1.7-2.8-.7-.9-1.6-1.4-2.5-2.2-.2-.1.1-.5.3-.4zm-4.9-.8c2.4.6 4.8 2.6 5.8 4.7.1.2-.3.4-.4.2-.8-1-1.6-1.9-2.6-2.7-.9-.7-2-1.2-3-1.8-.2-.1-.1-.4.2-.4zM67.4 82c1.6-1.8 3.8-4.3 6.5-4 .2 0 .2.3 0 .3-2.6.2-4.3 2.5-6.3 3.9-.2.1-.4-.1-.2-.2z" fill="#ede8e1" stroke-width="none" opacity="1" stroke="none"></path><path id="SvgjsPath3341" d="M90.9 80.6c-.1-.3-.5-.3-.6 0-.3 1.1-.3 2.4-1.2 3.3-.6.7-1.5.8-2.4.7.3-1.5.2-3.7-.8-4.9-.2-.2-.5-.1-.4.2 0 .8.4 1.6.5 2.4.1.8.2 1.5.2 2.3-.1 0-.2 0-.3-.1-.3-2-1.3-4.1-2.8-5.5 2.3.5 4.6.9 6.9 1.1.1 0 .2-.2.1-.2-2.6-.9-5.3-1.4-8-2-2.4-.5-5.1-1.4-7.6-1.5-2.1-.1-3.6.9-5 2.2-1.5 1.4-3.1 3.1-4.1 4.9l-.2.2c-.1.1-.2.3-.1.4 0 0 0 .1-.1.1-.2.4.3.7.6.4.1 0 .2 0 .3-.1 1.4-.7 2.5-1.4 4.1-1.6 1.3-.2 2.7-.1 4 .1 2.9.4 5.6 1.3 8.3 2.1 2.1.6 4.9 1.7 6.9.2 1.7-1 1.9-3.1 1.7-4.7zm-13.4 1.3c-.5-.1-1.1-.2-1.7-.3.1-1.1-.3-2.3-.8-3.3.7.6 1.4 1.2 2 1.9.6.6.9 1.4 1.5 2-.4-.1-.7-.2-1-.3zM70 79.5c1.2-1.1 2.5-1.7 4-1.9.2.8.6 1.6.7 2.4l.3 1.5c-.3 0-.7-.1-1-.1-.5-.9-1.3-1.8-2.3-2.1-.2-.1-.3.2-.2.4.4.4.9.8 1.3 1.2.1.2.2.3.4.5-1.9-.1-3.8.1-5.4.8.6-1 1.3-1.9 2.2-2.7zm15.2 4.8c-.2-.1-.4-.1-.6-.2-.4-.1-.9-.3-1.3-.4-.8-1.8-2.1-3.6-3.7-4.8-.2-.1-.4.1-.3.2 1.2 1.4 2.2 2.9 3.3 4.4-1.1-.4-2.2-.7-3.2-1.1-.2-1.1-1.2-2.2-1.9-3-.7-.7-1.5-1.4-2.4-1.9.4 0 .8.1 1.3.1 2 .3 4 .8 6 1.2v.1c.7 1.1 1.5 2.2 2.1 3.3.2.7.4 1.4.7 2.1z" fill="#cfb89a" stroke-width="none" opacity="1" stroke="none"></path></g></g></g><g id="svga-group-eyebrows-right-move" transform="matrix(1,0,0,1,0,0)"><g id="svga-group-eyebrows-right-rotate" transform="matrix(1,0,0,1,0,0)"><g id="svga-group-eyebrows-right" transform="matrix(1,0,0,1,0,0)"><path id="SvgjsPath3342" d="M133 82.5c-.1-.3-.3-.6-.5-.8-.1-.2-.3-.5-.5-.7-.2-.2-.4-.4-.7-.6-.5-.9-1.7-1.6-2.5-2.1-.9-.5-1.8-.9-2.9-.9-1-.2-2.1-.2-2.9.2-.4 0-.7.1-1 .3-1.1-.1-2.3.2-3.3.4-1.4.3-2.8.6-4.1 1.2-1.4 0-2.8.1-4.1.5h-.2c-.1 0-.2.1-.2.1h-.1c-.1 0-.2.1-.3.2-.1.1 0 .3 0 .4v.1c0 .2 0 .4.1.6 0 .6.1 1.1.5 1.6 0 .1 0 .2.1.3.1.5.2 1.1.7 1.4.2.2.5.3.8.3.1 0 .2 0 .3-.1h.6c.6.2 1.4 0 1.9-.1.6-.1 1.2-.3 1.7-.6 1.8-.3 3.5-.8 5.3-1.2 1.6-.4 4-.4 5.4-1.3.7.1 1.4.2 2 .2.3 0 .7.1 1.1 0 .2 0 .5 0 .7-.2 0 0 .1 0 .1-.1h.1l.4.4c.3.3.7.7 1.2.8.1.2.3 0 .3-.3z" fill="#decfbc" stroke-width="none" opacity="1" stroke="none"></path><path id="SvgjsPath3343" d="M112.3 83c.1-.6.2-1.2.4-1.7 0-.2-.2-.3-.3-.1-.7 1-.9 2.8-.2 3.9.1.2.3.1.3-.1-.1-.8-.2-1.4-.2-2zm3.4-3.2c-1.3.8-2.1 2.6-2.1 4 0 .2.3.3.3.1.2-.7.4-1.3.7-1.9.3-.7.9-1.2 1.3-1.9.3-.2 0-.4-.2-.3zm3.3-.7c-2.2.8-3.8 3.2-4.2 5.3 0 .2.2.2.3.1.4-1 .9-2 1.7-2.8.7-.9 1.6-1.4 2.5-2.2.2-.1-.1-.5-.3-.4zm4.9-.8c-2.4.6-4.8 2.6-5.8 4.7-.1.2.3.4.4.2.8-1 1.6-1.9 2.6-2.7.9-.7 2-1.2 3-1.8.2-.1.1-.4-.2-.4zm8.7 3.7c-1.6-1.8-3.8-4.3-6.5-4-.2 0-.2.3 0 .3 2.6.2 4.3 2.5 6.3 3.9.2.1.4-.1.2-.2z" fill="#ede8e1" stroke-width="none" opacity="1" stroke="none"></path><path id="SvgjsPath3344" d="M110.6 85.3c2 1.5 4.8.4 6.9-.2 2.8-.8 5.5-1.8 8.3-2.1 1.3-.2 2.7-.3 4-.1 1.6.2 2.7.9 4.1 1.6.1.1.2.1.3.1.3.3.8 0 .6-.4 0 0 0-.1-.1-.1 0-.1 0-.3-.1-.4l-.2-.2c-1-1.8-2.6-3.5-4.1-4.9-1.4-1.3-2.9-2.3-5-2.2-2.5.1-5.2 1-7.6 1.5-2.7.6-5.4 1.1-8 2-.2.1-.1.2.1.2 2.3-.2 4.6-.6 6.9-1.1-1.5 1.4-2.5 3.5-2.8 5.5-.1 0-.2 0-.3.1.1-.8.1-1.5.2-2.3.1-.8.5-1.6.5-2.4 0-.2-.3-.3-.4-.2-1 1.2-1.1 3.4-.8 4.9-.9.1-1.7 0-2.4-.7-.8-.9-.9-2.2-1.2-3.4-.1-.3-.5-.3-.6 0 0 1.7.2 3.8 1.7 4.8zm10.9-3.2c.5-.6.9-1.4 1.5-2 .6-.7 1.3-1.3 2-1.9-.5 1-.9 2.3-.8 3.3-.6.1-1.2.2-1.7.3-.3.2-.6.3-1 .3zm10.8 0c-1.6-.7-3.6-.9-5.4-.8.1-.2.2-.3.4-.5.4-.5.9-.8 1.3-1.2.1-.1.1-.4-.2-.4-1 .3-1.8 1.2-2.3 2.1-.3 0-.7.1-1 .1l.3-1.5c.2-.8.5-1.6.7-2.4 1.4.2 2.7.8 4 1.9.8.9 1.5 1.8 2.2 2.7zm-16.7.2c.6-1.2 1.4-2.2 2.1-3.3v-.1c2-.4 4-.9 6-1.2.4-.1.9-.1 1.3-.1-.9.5-1.7 1.2-2.4 1.9-.7.8-1.7 1.9-1.9 3-1.1.3-2.2.7-3.2 1.1 1-1.5 2.1-2.9 3.3-4.4.1-.2-.1-.3-.3-.2-1.6 1.2-2.9 3-3.7 4.8-.4.1-.9.3-1.3.4-.2.1-.4.1-.6.2.2-.8.4-1.5.7-2.1z" fill="#cfb89a" stroke-width="none" opacity="1" stroke="none"></path></g></g></g><g id="svga-group-beardwrap" transform="matrix(1,0,0,1,0,0)"><g id="svga-group-beard-single-move" transform="matrix(1,0,0,1,0,0)"><g id="svga-group-beard-single" transform="matrix(1,0,0,1,0,0)"><path id="SvgjsPath7691" d="M144.2 93c-1.2-3.7-2.7-2.1-3.2-.7-.5 1.4-1.7 12.2-2.9 17.1-1.8 7.6-11 16.3-12.6 15.4s1.1-4.9-1.8-7.7c-1.9-1.9-13.8 1.1-23.5 1.2-6.2.1-19.7-4.1-23.8-1.2-2.8 1.9-1.6 6.6-2.1 7.8s-7.8-6.6-9.6-10.8c-1.8-4.3-4.3-19.4-4.6-22.4-.3-3-2.5-2.8-3-1.6-.6 1.4-2.5 6.4-2.9 12.8-.5 7.6-.5 19.6 1.8 28 2.3 8.4 8 13.9 8 13.9l.3-1.4s5.3 8.7 12.6 12.6c7.3 3.9 19.6 6.8 19.6 6.8l-.8-2.1 4 2.7 10.1-2.2-1.6 1.3s9.7-.3 22.2-8.5c5-3.7 8.7-10.7 9.6-13.3l.4 1.8s4.1-11.4 5.1-18.1l.5.7c0-.1 2.8-18.2-1.8-32.1zm-29.1 45.8c-4.1 4.8-27.5 3.5-31.4-1.4-3-3.7-4.4-15.1-1.2-15.4 0 0 32.5-.6 35 .3 2.4.9 1.7 11.8-2.4 16.5z" fill="#decfbc" stroke-width="none" opacity="1" stroke="none"></path><path id="SvgjsPath7692" d="M58.2 89.7c.1-.3-.3-.5-.5-.3-2.7 4.2-3.8 9.6-4 14.5 0 .2.3.3.3 0 .8-4.9 2.5-9.4 4.2-14.2zm-.9 9.3c0-.2-.2-.2-.3 0-1.4 6.2-1 12.9 0 19.2 0 .2.3.1.3 0-.5-6.5-.2-12.7 0-19.2zm.8-5.2c-.2 2.8-.5 5.7-.5 8.5 0 .2.3.3.3.1.4-2.8.5-5.7.6-8.5 0-.3-.4-.3-.4-.1zm1.5 21.2c-.3-3.7-.6-7.4-.5-11.2 0-.4-.5-.4-.6 0-.1 3.8-.1 7.5.6 11.2.2.3.6.2.5 0zm.7 12.2c0 .2.4.2.4-.1-.2-3.6-.5-7.1-.5-10.7 0-.2-.3-.2-.3 0-.3 3.6-.3 7.3.4 10.8zm2.7 6.4c-.6-3.2-1.2-6.4-1.2-9.7 0-.4-.6-.4-.6 0 0 3.3.3 6.7 1.4 9.8.2.2.5.1.4-.1zm-3.4-33.3c-.2-3.8-.2-7.4.2-11.1 0-.2-.3-.2-.3 0-.8 3.7-.9 7.6-.2 11.2 0 .2.3.1.3-.1zm1.4 3.4c-.1-2.9-.4-5.8-.8-8.6 0-.2-.3-.2-.3 0 .2 2.9.3 5.8.7 8.7.1.1.4.1.4-.1zm2.3 10.3c-.4-3-1-6.1-1.4-9.1 0-.2-.4-.2-.4.1.3 3.1.6 6.1 1.4 9.1.1.2.5.1.4-.1zm2.9 5.5c-.8-2.7-1.6-5.3-2.1-8.1-.1-.3-.5-.2-.4.1.5 2.8 1.2 5.5 2.3 8.1 0 .1.2 0 .2-.1zm2.6 4.5c-.7-2.5-1.6-5-2.2-7.5-.1-.3-.6-.2-.5.1.6 2.5 1.3 5.2 2.4 7.5 0 .3.3.1.3-.1zm2.3 3.2c-1.1-2.6-2.3-5.1-3.2-7.9-.1-.2-.4-.1-.4.1.7 2.7 1.6 5.6 3.2 7.9.2.3.5.1.4-.1zm2.1 1.9c-.7-1.9-1.7-3.6-2.3-5.5-.1-.3-.6-.2-.5.1.6 1.9 1.3 4 2.4 5.6.1.2.5.1.4-.2zm12 12.4c-.4-.6-.8-1.3-1.2-1.9 1.2 1.7 2.5 3.3 4.1 4.6.2.2.4-.1.3-.3-1.6-2-3.4-3.8-4.9-5.9-.1-.1-.3-.1-.4-.1-1.8-3.9-2.4-8-3-12.5 0-.3-.5-.3-.5 0 .2 5.7.9 12.1 5.1 16.5.3.1.7-.2.5-.4zm4.1 1.9c1 1.5 2.1 3 3.4 4.2.1.1.3 0 .2-.2-1-1.5-2.2-2.8-3.2-4.3-.1-.2-.5 0-.4.3zm3.7 1.5c-.4-.7-1.1-1.3-1.6-1.9s-.9-1.4-1.3-2.1c-.2-.3-.6 0-.4.3.7 1.4 1.7 3.2 3 4.1.2.1.5-.1.3-.4zm3.5-1.4c.6 3.1 1.2 6.3 2.3 9.3.1.3.4.1.4-.1-.5-3.1-1.4-6.2-2.2-9.3-.1-.4-.6-.3-.5.1zm4.1 10.5c0-1.3-.4-2.5-.7-3.8-.3-1.6-.5-3.3-.7-5 0-.2-.3-.2-.3 0 0 2.8.1 6.3 1.3 8.8.1.2.4.1.4 0zm1.1.4c-.1-2.7-.6-5.3-1-8 0-.3-.5-.2-.5.1.3 2.6.5 5.4 1.1 8 0 .2.4.1.4-.1zm11.8-13.3c-.9 2.6-2.3 5.1-3.2 7.8-.1.2.2.2.3.1 1.6-2.2 2.6-5.1 3.5-7.7 0-.4-.5-.5-.6-.2zm6.8-4.8c-1.3 3.1-2.7 6.2-4 9.4-.1.2.2.3.3.1 1.7-3 3-6.1 4.3-9.3.2-.5-.4-.6-.6-.2zm-31.7 20.9c.1.1.2-.1.2-.2-2.3-2.6-4-5.2-4.4-8.7 0-.2-.4-.2-.3 0 .2 3.3 1.6 6.8 4.5 8.9zm-19.4-13.8c-.3-1.1-.9-2.2-1.4-3.2-.5-1.2-1-2.5-1.3-3.8-.1-.2-.4-.1-.3.1.6 2.3 1.3 5.1 2.8 7 0 .1.2 0 .2-.1zm-2-.3c.1.1.3-.1.2-.2-1.2-1.9-1.9-4.2-2.3-6.4 0-.2-.3-.1-.3.1.2 1.4.5 2.8 1 4.2.4.8.6 1.8 1.4 2.3zm31.5 15.4c-.3-1.2-.9-2.3-1-3.6 0-.2-.4-.2-.4 0 .1 1.2.3 2.8 1.2 3.8.1 0 .2-.1.2-.2zm1.1.2c0-1.1-.4-2.3-.5-3.4 0-.2-.4-.2-.3 0 .1 1.1.1 2.5.6 3.5 0 .1.1 0 .2-.1zm1.7-.8c0-.9-.3-1.8-.4-2.6 0-.2-.4-.2-.4 0 .1.9.1 1.9.5 2.7.1.1.3 0 .3-.1zm4.8 1.4c-1.1.7-2.1 1.6-3.2 2.3-.2.1-1.3.7-2.2 1.1.4-.3.8-.7 1.1-.9.9-.8 1.9-1.6 2.6-2.6.1-.1-.1-.3-.2-.2-.9.7-1.8 1.5-2.7 2.3l-.1.1c1.3-1.5 2.5-3.2 3.4-5 .1-.1-.1-.3-.2-.2-.5.6-1 1.3-1.5 2-.1 0-.2 0-.3.1-.8.7-1.6 1.3-2.3 2l-.1.1c-.1-.1-.1-.2-.2-.4.4-.4.7-.9 1.1-1.3.3-.4-.2-1-.6-.6-.4.5-.8.9-1.2 1.4l-.1.1c-.2.3-.5.5-.7.8-.3-1-.8-2.1-1.2-3-.1-.2-.3-.3-.4-.2-.3-.5-.5-1-.8-1.5-.4-1-.8-1.9-1.1-2.9-.1-.2-.4-.1-.3.1.4 1.6 1 3.4 2 4.8l.8 1.9v.1c-.1-.1-.2-.1-.3-.2-.3-.2-.7.1-.4.4.4.3.8.7 1.2 1 0 0 0 .1.1.1-.3.3-.7.6-1 .9-.2-1-.7-1.9-1.1-2.9-.4-1.1-.6-2.1-.9-3.2-.1-.4-.7-.2-.7.2.1.3.1.6.2 1-.5-.7-1-1.4-1.3-2.2-.5-1-.9-2.1-1.3-3.2-.1-.2-.4-.1-.3.1.6 2 1.3 4.6 3.1 6 .3 1.4.7 2.9 1.4 4.1-.2-.1-.4-.2-.6-.4-.3-.6-.7-1.1-.9-1.7-.5-1-.8-2-1.1-3-.1-.2-.3-.3-.5-.2-.2-.5-.5-1-.7-1.5-.2-.6-.4-1.3-.6-2-.1-.2-.4-.1-.3.1.2 1.2.6 2.6 1.3 3.7v.2c.3 1.1.6 2.4 1.2 3.6 0 0-.1 0-.1-.1-.3-.5-.7-1-1-1.5-.4-.6-.7-1.2-1.1-1.9l.2.2c.1.1.2 0 .2-.1-.2-.7-.7-1.3-1-1.9-.4-.8-.8-1.6-1-2.4-.1-.2-.4-.1-.3.1.2.8.5 1.7.9 2.5-.2 0-.4.2-.3.4l.3.6c-.9-1.5-1.6-3.1-2.3-4.8-.1-.2-.4-.1-.3.1.5 1.3 1 2.6 1.6 3.8.4.9.8 1.8 1.7 2.3.2.5.4.9.7 1.4-.4-.2-.8-.5-1.1-.8-.1 0-.1-.1-.2 0-.2-.3-.4-.6-.6-1v-.1c-.5-1.1-1.2-2.1-1.8-3.1-.6-1-1.1-2.1-1.6-3.2-.1-.2-.4-.1-.3.1.7 1.8 1.5 3.9 2.8 5.4-.1.1-.1.2 0 .3.6 1.1 1.2 2.1 1.9 3.1-3.1-2.8-6-5.6-8.4-9.2-.2-.3-.7 0-.5.3 2 3.3 4.6 6.6 7.8 8.9-.4-.2-.8-.3-1.2-.5-3.3-3.2-6.5-6.2-9.2-10-.3-.4-.9 0-.6.4 2 3.1 4.5 6.3 7.4 8.7-.1-.1-.2-.1-.4-.1-2.1-1.7-4.1-3.2-5.8-5.1.1-.1.1-.2 0-.3-.8-1.1-1.6-2.2-2.5-3.3-.1-.1-.1-.2-.2-.4 0-.1-.1-.1-.2-.1-.7-.8-1.3-1.7-1.9-2.5.4.5.8.9 1.2 1.4l.9 1.2c.1.1.2 0 .2-.1l.2.2c.2.2.6-.1.4-.3-3.2-4.4-6.4-8.7-8.5-13.9-.1-.3-.7-.2-.6.1.4 1.1.8 2.1 1.2 3.1-.2-.2-.6 0-.5.3.2.6.4 1.2.7 1.8 0 0 0-.1-.1-.1-.1-.3-.6-.1-.5.2 1.1 2.6 2.4 5.1 3.9 7.5-1.3-1.9-2.5-4-3.4-6.2-.1-.3-.7-.1-.6.2 2 5 4.8 10 9.1 13.5.1.1.3.1.3 0 .6.7 1.2 1.3 1.9 1.9-.3-.1-.6-.3-1-.5-1.7-1.6-3.4-3.1-4.9-4.9-.1-.1-.1-.1-.2-.1-2.1-2.6-4.1-5.3-5.5-8.4-.2-.4-.8-.1-.6.4 1.5 3.4 3.4 6.8 6.2 9.3.4.4.9.9 1.3 1.2.4.4.8.9 1.2 1.3-1-.5-1.9-1.1-2.8-1.8-1-1.6-2.3-3-3.3-4.6-1.1-1.6-2-3.2-2.9-4.9-.2-.5-.9-.1-.7.4 1 2.1 2.2 4.5 3.8 6.5l-.5-.5h-.1c-1.6-2.4-3.3-4.8-4.7-7.4-.1-.1-.2-.1-.3-.1-.2-.5-.4-1-.7-1.5-.1-.1-.3-.1-.2.1.2.6.5 1.2.7 1.8 0 .1.1.2.1.3.5 1.2 1.1 2.3 1.7 3.4.7 1.3 1.5 2.6 2.3 3.8-.6-.5-1.1-1-1.6-1.6v-.1c-1.2-2.2-2.5-4.2-3.6-6.4-.8-2.4-1.6-4.7-2.1-7.2 0-.3-.5-.2-.5.1.2 1.2.5 2.4.8 3.6-.2-.1-.5.1-.4.4.4 1.2.8 2.4 1.3 3.5-.1-.2-.2-.4-.4-.7-.1-.2-.2-.4-.2-.6-.6-1.6-1.1-3.4-1.6-5 0-.1-.1-.1-.1-.2-.6-2.4-1.1-4.7-1.3-7.2 0-.3-.5-.3-.4 0 .2 2.5.5 5.1 1.2 7.5.5 1.8.9 3.8 1.6 5.6-.1-.1-.1-.2-.2-.3-.3-1-.7-2.1-1-3.1-.4-1.3-.8-2.7-1.1-4 0-.1-.1-.2-.2-.2-.2-2.2-.7-4.4-.8-6.7 0-.2-.3-.2-.3 0 0 1.3 0 2.6.2 4-.3-2-.6-4-.5-6.1 0-.2-.3-.2-.3 0-.1 1.8-.2 3.8.2 5.7-1.1-2.2-.9-5.3-1.2-7.7 0-.2-.3-.2-.3 0 .1 1.7.2 3.3.3 5-.2-.3-.7-.2-.7.2-.3-1.1-.2-2.7-.3-3.6 0-1.3 0-2.6.1-3.8 0-.2-.3-.2-.3 0-.2 2-.3 3.9-.1 5.9.1.7 0 1.8.6 2.3v1.7c-.3-1.4-.6-2.8-.8-4.2l.1-.1c-.5-2.9-.5-5.5-.3-8.4 0-.2-.2-.2-.3 0-.2 1.9-.5 4-.3 6v1.8c-.7-5.7-1-11.3-.8-17.1 0-.2-.3-.2-.4 0-.7 7.2-.3 14.6 1.4 21.7 0 .2.2.2.3.1.7 3.9 1.9 7.7 4 10.9.1.1.4.1.3-.1-.5-1.4-1-2.8-1.4-4.2.1 0 .1-.1.1-.2-.3-.9-.5-1.8-.6-2.6.3.9.7 1.8 1.1 2.7.1.2.1.5.2.8 0 .1.1.1.2.1.7 1.4 1.5 2.8 2.3 4.1.1.2.2.3.3.5 0 .1.1.1.2.1.6.8 1.2 1.5 1.9 2.2.2.4.5.7.8 1.1.1.1.3.1.3-.1 2.3 3.5 5.3 6.6 9.4 7.9h.2c3.5 2.5 7.6 4.1 11.8 5.2.2.1.3-.2.1-.3-1-.4-1.9-.9-2.9-1.3-.2-.2-.4-.3-.6-.5 2.8 1.6 5.9 2.8 8.9 3.8.2.2.4.4.7.5.3.1.5-.2.3-.4 0-.1 0-.2-.1-.2-.1-.1-.2-.1-.2-.2-.6-.6-1.1-1.3-1.6-2l1.2.9c.4.6 1 1.1 1.6 1.5.2.1.4-.1.3-.3-.1-.1-.1-.2-.2-.3.2.2.3.4.5.6.2.2.5.1.6-.1.2.1.4.1.6.2l-.4.4c-.2.3.1.7.4.5.9-.4 1.7-1.1 2.4-1.9.1.1.1.1.2.1h.1c-.2.2-.4.4-.6.7-.2.2.1.5.4.4.8-.4 1.4-1 2-1.6-.1.2-.2.3-.4.5-.1.2 0 .4.1.4-.6.4-1.2.9-1.6 1.5 0 .1 0 .1.1.1h.1c0 .1.1.1.1.1.9.3 2.6-.9 3.3-1.3 1.3-.8 2.7-1.7 3.7-2.9 0-.1-.2-.3-.3-.2zM60 137.2c-.2-1.3-.5-2.6-.7-3.9 0-.3-.5-.2-.5.1.1.5.2 1 .2 1.6-.3-.8-.6-1.6-.9-2.5 0-.1 0-.1-.1-.1v-1.8c.1 1 .2 1.9 1 2.5h.2c.1.4.2.9.4 1.3.1.2.4.2.3-.1 0-.2 0-.4-.1-.6.1.7.2 1.3.5 1.9-.1.1-.1.2-.1.3.2 1 .4 2.1.7 3.2-.2-.5-.5-1.2-.9-1.9zm39.4 24.1c-.1-.1-.1-.2-.2-.2.2-.3.5-.5.7-.8.1.1.2.2.2.3-.2.2-.4.5-.7.7zm25.6-8.9c2.1-2 3.3-5.1 4-7.8.1-.3-.3-.4-.4-.1-.8 2.9-2.2 5.2-3.8 7.8-.1 0 .1.2.2.1zm4.2-4.3c-2 3.1-4.3 5.8-6.7 8.4-.3.1-.5.3-.8.4 1.1-1.3 2.1-2.7 3-4 .2-.3-.2-.6-.4-.3-1.6 2.2-3.6 4-5.5 5.9-.3.1-.6.3-.9.4l.2-.2c1.1-.8 2.1-1.7 3.1-2.6.3-.3-.1-.8-.5-.5-.2.2-.5.4-.7.6.2-.3.4-.6.6-1 0 .1.1.1.2.1 2.7-1.5 4.6-4.6 5.6-7.5.1-.2-.3-.3-.4-.1-1.2 2.9-3.1 4.9-5.2 7.1.1-.2.3-.4.4-.6.1-.1 0-.3-.1-.4.4-.7.8-1.4 1.1-2.1.1-.2-.2-.3-.3-.1-.8 1.7-1.9 3.1-3.2 4.4.1-.1.1-.2.2-.4.6-1.2 1.2-2.3 1.9-3.5.2-.4-.3-.7-.5-.4-1.1 2-2.6 4.2-3.2 6.4v.1c-.1 0-.1-.1-.2-.1 0-.1-.1-.2-.1-.3 1.1-1.8 1.8-3.9 2.4-6 .8-.9 1.5-1.9 1.7-3.1 0-.1-.2-.2-.2-.1-.3.5-.6 1.1-.9 1.7-.1.2-.2.4-.4.6 0-.1.1-.2.1-.3.1-.4-.5-.6-.6-.2-.7 2.7-1.8 5.1-3.1 7.5-1 .7-2.1 1.4-3.1 2 1.6-1.3 3-3.1 4.1-4.8.2-.2-.2-.5-.3-.2-.7 1-1.6 2-2.4 2.9-.2.1-.5.2-.7.4.4-.4.8-.9 1.2-1.3.3-.4-.3-.8-.6-.4-1.1 1.2-2.3 2.3-3.6 3.3l-1.2.6c-.2.1-.2.2-.1.3-1 .6-2.1 1.2-3 1.9-.2.1 0 .5.2.4 1.9-.5 3.8-1.7 5.4-3.2l1.2-.6c-.2.2-.3.4-.5.6-.2.2.1.4.3.3-.9.6-1.8 1.1-2.7 1.7l-.1.1c-.1.2.1.5.3.4 1.2-.4 2.4-.9 3.6-1.5 0 .2.2.4.3.3.5-.3 1.1-.6 1.6-1 .1.1.2.1.4.1.4-.3.8-.6 1.2-1 0 .1.1.2.3.1-.3.3-.7.6-1 1-.2.2 0 .6.3.4.6-.4 1.2-.8 1.8-1.3 0 .2.2.4.5.3.1 0 .1-.1.2-.1-.1.1-.2.2-.3.4-.2.2.1.4.3.3.6-.4 1.2-.9 1.8-1.4 3.3-1.6 6.2-4 7.9-7.1.2-.3-.2-.6-.5-.3-1.4 1.7-2.9 3.2-4.4 4.5 2.1-2.4 3.9-5.2 5.4-7.8.2-.1-.2-.4-.4-.1zm-8.7 10.5c-.3.2-.7.3-1.1.5.3-.3.6-.5.9-.8.3-.1.6-.3.8-.4-.1.2-.3.5-.6.7zm-15.9-.5c1.3-2 2.7-3.9 3.8-6 .1-.1-.1-.2-.2-.1-1.6 1.7-2.9 3.8-4.1 5.9-.1.2.3.5.5.2zm1.3-.5c1-1.2 2.2-2.4 3-3.8.1-.1-.1-.2-.2-.1-1.2 1.1-2.1 2.5-3.1 3.7 0 .1.2.4.3.2zm1.4-.2c1.2-.8 2.5-1.8 3.1-3.1.1-.1-.1-.2-.2-.1-.5.5-.9 1-1.4 1.5-.5.5-1.1 1-1.7 1.5 0 .1.1.3.2.2zm9.9-6c-1 1.1-1.8 2.3-3 3.2-.2.1.1.4.2.3 1.2-.9 2.4-2 3-3.4.1-.1-.1-.2-.2-.1zm-2.4.9c-1.1 1.1-2.1 2.5-3.1 3.7-.1.2.1.4.2.2 1.1-1.2 2.2-2.4 3-3.8.1-.1 0-.2-.1-.1zm-2.6 1.1c-1 1.2-1.8 2.5-3.1 3.5-.2.1.1.4.2.2 1.2-.9 2.4-2.2 3-3.6.1-.1-.1-.2-.1-.1zm-1.5 2.6c-.9 1.6-2.4 2.7-3.6 4-1.2.8-2.4 1.6-3.4 2.6-.2.1 0 .4.2.4 2.1-.9 3.8-2.4 5.6-3.8.3-.2.1-.6-.2-.6.7-.7 1.4-1.5 1.8-2.5-.1-.2-.4-.2-.4-.1zm21.2-9.8c1.6-2.7 1.8-6 1.9-9 0-.3-.4-.3-.4 0-.3 3.1-.7 6-1.7 8.9-.1.1.1.2.2.1zm-3.2 2.8c1.4-2 2.2-4.6 2.7-6.9.1-.2-.3-.3-.3-.1-.6 2.4-1.6 4.6-2.6 6.9-.1.2.2.2.2.1zm11-14.7c-.7 3.2-1.7 6.2-2.8 9.2-.1 0-.2.1-.2.2-1.5 3.2-3 6.1-5.2 8.8 1.9-3.5 3.5-7.2 4.7-11.1.1-.4-.4-.6-.6-.2-.9 2.5-2 4.9-3.1 7.3-.1 0-.1 0-.2.1-2.2 3.7-4.9 6.7-8.2 9.4-.2.2 0 .6.3.4 2.4-1.3 4.5-3.3 6.1-5.5-.2.4-.4.9-.6 1.4-.2.3-.3.7-.5 1-.1.2.2.4.4.2.2-.3.4-.6.5-.9 1.5-1.3 2.9-2.8 4.1-4.5.1.1.3.2.4 0 2.7-4.8 4.4-10.1 5.5-15.5 0-.5-.5-.6-.6-.3zm-21.3-16.2c1.8 2.6 1.6 5.9 2.2 8.9 0 .2.3.1.3 0 .2-2.9-.5-6.6-2.2-9.1-.2-.1-.4 0-.3.2zm2.3.3c.9 4.7.7 9.2.9 13.8 0 .2.3.2.3 0 .5-4.6.3-9.5-.9-13.9 0-.2-.3-.1-.3.1zm2.1 28.9c-.8 1.1-1.3 2.3-2.1 3.3-.1.1.1.3.3.2.8-1 1.7-2.2 2-3.4.1-.1-.1-.2-.2-.1zm2.3-1.4c-.8 1.2-1.3 2.4-2.3 3.5-.2.2.1.4.3.3 1-1 2-2.3 2.3-3.6 0-.3-.2-.4-.3-.2zm-1.8-28.5c.2 0 .3-.1.3-.3.9 2.4.9 5 .6 7.6-.1-2-.5-4-1.1-5.9-.1-.2-.3-.1-.3.1.7 2.9.9 5.8 1 8.7-.2 1.3-.3 2.6-.4 3.9 0 .3.4.3.4.1 1.2-4.6 2.1-10.4 0-14.9-.1-.2-.4-.1-.4.2l-.1-.1c-4.7-1.1-9.3.1-14 .9-7.3 1.3-14-.1-21.2-1.1-.1 0-.2.2-.1.2 5.6 1.3 11 3.1 16.8 2.7 1.2-.1 2.5-.2 3.7-.4 1 0 1.8.8 2.6 1.5-3.1-.1-6.3.1-9.4.5-.1-.1-.2-.2-.4-.2-1.9.3-3.8.4-5.6.5.2-.3.5-.5.6-.9.1-.1-.1-.2-.2-.1-.3.2-.5.5-.7.8v.2c-.6 0-1.2 0-1.8.1.2-.4.4-.9.7-1.3.3-.4.7-.7 1.1-1.1.1-.1 0-.3-.1-.2-1.1.3-1.8 1.5-2.1 2.6-1.9 0-3.8-.1-5.7-.2.7-1.4 2.6-1.9 3.8-2.6.1-.1.1-.2-.1-.2-1.5.1-3.6 1.2-4.2 2.8h-.6c-.4 0-.9-.1-1.3-.1 1-1.1 2.4-1.5 3.6-2.2.1-.1 0-.2-.1-.2-1.5.3-3.1 1.1-4 2.4-.5 0-.9 0-1.4.1.3-.6.7-1.2 1.1-1.7.6-.6 1.3-.9 2-1.4.1-.1 0-.2-.1-.2-1.6.3-2.9 1.8-3.4 3.3-.7.1-1.3.4-1.9.8.2-1.9 2.1-3.4 3.3-4.8.1-.1 0-.3-.2-.2-1.7.8-3.7 3.2-3.5 5.3l-.6.6c-.1.2.1.4.3.2.1-.1.3-.2.4-.3 0 .1 0 .1.1.2.1.2.4.1.3-.1 0-.1 0-.2-.1-.3 1-.6 2.2-.8 3.4-.8.1.1.1.1.2 0 2.8-.1 6 .8 8.4.9 2.4.1 4.9.1 7.2-.8 5.8.4 14.9-2.1 18.5 3.1.1.1.2.2.3.1 0 .7.1 1.3.1 2-1.2 6-3.1 11.5-6.2 17-.1.2.2.4.4.2 2.3-3.3 4.2-7 5.3-10.9-.3 1.7-.8 3.4-1.3 5 0 .1 0 .3.2.3-1.4 3.3-3.1 6.4-5.1 9.6-.1.2.2.4.3.2 4.3-5.5 7-12.4 8.4-19.2.1-.3-.4-.5-.5-.1-.2.7-.3 1.4-.5 2 .3-2.1.3-4.1 0-6.1v-.3c0-.1-.1-.2-.1-.2-.1-.5-.2-1.1-.4-1.6 0-.1-.2-.2-.3-.2-.5-1.9-1.7-3.8-3-5.3 2.5 0 4.8-.3 7.1-.2zm-9.4 3.3c-.6-.8-1.6-1.5-2.5-2-.2-.1-.4.2-.2.3.6.3 1.1.7 1.6 1.2l.5.5c-.5 0-1 0-1.5-.1-.4-.4-.8-.7-1.2-1.1l-.9-.6 3.9-.6c1.4.7 2.3 1.8 3.2 3.1-1-.4-1.9-.6-2.9-.7zm5.2 3.5c-.4-1.2-1.2-2.1-2.2-2.6v-.1c-.4-1.4-1.6-2.6-2.9-3.2.7-.1 1.3-.2 2-.3v.1c1.6 1.8 2.3 3.8 3.1 6.1zm6.8 7.9c.8-1.7 1.2-3.6 1.3-5.4 0-.2-.4-.2-.4 0-.2 1.8-.7 3.6-1.2 5.3 0 .2.2.3.3.1zm19.5-28.4c.1-4.5-.9-9-2.5-13.2-.1-.3-.6-.1-.5.2 1.3 4.3 2 8.6 2.5 13.1 0 .3.5.2.5-.1zm-.4-9c-.1-.3-.5-.2-.5.1 1.1 6.2 1.7 12.3 2.1 18.5 0 .2.3.2.3 0 .4-6.3-.4-12.5-1.9-18.6zm1 18.8c-1 7.9-2.5 15.5-4 23.3 0 .2.3.3.3.1 2.7-7.3 4-15.5 4.2-23.3 0-.3-.4-.4-.5-.1zm-6 20.2c.1.2.3.1.3-.1 0-.9-.2-1.8-.4-2.6-.2-1-.3-2-.5-3-.1-.2-.4-.2-.4.1.1.9.2 1.9.4 2.8.1 1 .2 2 .6 2.8zm.9-1.5c.3-1.5-.1-3.1-.4-4.6-.1-.2-.4-.1-.3.1.3 1.5.2 2.9.4 4.4 0 .3.3.4.3.1zm2.3-15c.2.8.3 1.6.4 2.4.1.6 0 1.3.2 1.9 0 .1.2.1.2 0 .4-1.3-.2-3.2-.6-4.4.1-.2-.2-.2-.2.1zm.5-1.1c.4 1.2.4 2.7 1 3.9.1.1.2.1.2-.1.1-1.3-.6-2.7-1-3.9 0-.2-.3-.1-.2.1zm2.3-7.6c.2-1.6-.3-3.4-.7-4.9-.1-.2-.4-.1-.3.1.4 1.6.4 3.3.8 4.9-.1.1.1 0 .2-.1zm-1.7-1.3c.6 2.9.8 5.8 1.3 8.8 0 .2.3.1.3 0 .1-2.9-.6-6-1.3-8.8-.1-.3-.3-.2-.3 0zm-1.2.8c.7 3.3 1.3 6.8 2.1 10.1.1.2.4.2.4-.1-.4-3.4-1.3-6.8-2.1-10.1-.1-.2-.4-.1-.4.1zm1.9-2.2c-.1-.2-.4-.1-.3.1.5 2.3.7 4.7 1.3 7 0 .2.3.1.3 0 0-2.4-.7-4.8-1.3-7.1zm-2.8 15.8c.1.7.2 1.5.3 2.2.1.6.1 1.3.3 1.9.1.2.3.1.3 0 .1-1.3-.3-2.9-.6-4.2 0-.2-.3-.1-.3.1zm.7-2.4c.1.8.2 1.7.2 2.5 0 .6 0 1.3.1 1.9 0 .2.2.1.3 0 .4-1.4 0-3.2-.3-4.6-.1 0-.3.1-.3.2zm-.6 6.7c-.7 5.8-1.8 11.4-3.1 17.1-.1.3.3.4.4.1 1.9-5.5 2.9-11.3 3.2-17.2-.1-.2-.5-.2-.5 0zm-11.5 1.4c.1-1.4 0-2.9 0-4.4 0-.2-.3-.2-.3 0 0 1.4-.1 2.9 0 4.4 0 .2.3.2.3 0zm-52.1-2.6c-.4-2.2.8-3.9 1.8-5.8.1-.1-.1-.3-.2-.2-1.4 1.7-2.5 3.8-1.8 6-.1.2.2.2.2 0zm-.2 6.8c.1.1.3.1.3-.1-1.1-3.3-1.9-6.6-2.1-10.1 0-.3-.4-.3-.4 0 .1 3.5.8 6.9 2.2 10.2zm3.9 16.9c-2-3.6-4.3-7.9-5.8-12.4 0 0 .1-.1 0-.2-.6-2.3-1.3-4.5-1.8-6.9-.3-1.9-.3-3.9-.1-5.8.2 4.8 1.4 9.4 3.7 13.8.1.2.4 0 .3-.2-2.3-5-3.5-10.2-3.6-15.7.3-1.1.6-2.1 1.1-3.2.1-.2-.2-.4-.3-.2-1.6 2.7-2.2 5.8-2.3 9.1-.3-.6-.6-1.2-.8-1.8-.1-.2-.4 0-.3.2.4.9.8 2 1.2 2.9.2 3.2.9 6.4 2 9.5-.3-.8-.7-1.5-1-2.3-.1-.2-.5-.1-.4.1 1.7 4.4 3.8 8.7 6.8 12.3.1.1.1.1.2 0 .2.3.5.6.7.9.2.5.5.2.4-.1zm59.5-47.5c.1-1.8-.1-3.6-.2-5.4 0-.2-.4-.2-.3 0 .2 1.8.2 3.6.3 5.4 0 .1.2.1.2 0zm-2.4 19.8c.4-4.2.3-8.4.2-12.6 0-.3-.5-.3-.5 0 0 4.2-.1 8.4 0 12.6-.1.2.2.2.3 0zm-1.6 2.1c.4-3.9.2-8.1-.1-12 0-.2-.3-.2-.4 0-.2 3.9-.5 8.1-.1 12 .2.3.6.3.6 0zm-2.3 2.7c.4-3.2.3-6.5.4-9.8 0-.2-.3-.2-.3 0-.2 3.2-.6 6.5-.5 9.8-.1.3.3.3.4 0zm-2.4-.3c.3-1.4.4-2.9.6-4.4 0-.3-.4-.3-.4 0-.2 1.4-.4 2.9-.5 4.4 0 .1.2.2.3 0zm5 7.2c0-.2-.3-.2-.3 0 0 2.5-.6 4.7-1 7.1 0 .1.1.2.2.1 1-2.2 1.1-4.8 1.1-7.2zm-2.9 4.8c-.2 1.3-.5 2.6-.9 3.9-.4 1.1-.9 2.1-1.3 3.3 0 .1.1.2.2.1 1.6-1.9 2.1-4.9 2.4-7.3 0-.3-.3-.2-.4 0zm1.2-1.7c-.1.9-.3 1.9-.5 2.8-.2.7-.4 1.4-.4 2.2 0 .1.2.2.2.1.8-1.4.9-3.5 1-5.1.1-.2-.3-.2-.3 0z" fill="#cfb89a" stroke-width="none" opacity="1" stroke="none"></path></g></g></g><g id="svga-group-mustache-single-move" transform="matrix(1,0,0,1,0,0)"><g id="svga-group-mustache-single" transform="matrix(1,0,0,1,0,0)"><path id="SvgjsPath7496" d="M73.9 130.6c-.2.1 9.4-16 25.9-15.3s23.3 9.9 27.2 16c0 0-3.8-1.3-4.8-1.7s-3.8-4.4-3.8-4.4 1.6 3.3 1.7 3.7c.1.4-4.1-1.1-6-2.3-1.9-1.2-3.6-3.5-3.6-3.5l1.9 3.6s-4.3-.8-5.5-1.3c-1.2-.5-3.1-3.4-3.1-3.4l1.6 3.1s-1.6.2-2.3-.3-1.5-3.1-1.5-3.1.1 2.9-.2 3c-.3.2-2.9.7-2.9.7l1-3s-1.2 2.9-1.9 3-4.6.6-6.2 1-4.3.9-5.2 1.2c0 0 .5-2.6 1-3.7 0 0-1.8 2.7-2.6 4.2 0 0 .6-3 .9-3.8 0 0-1.7 2.2-2.4 3.7 0 0-.5.6-3.1 1.3-2.8.6-3.8.5-6.1 1.3z" fill="#decfbc" stroke-width="none" opacity="1" stroke="none"></path><path id="SvgjsPath7497" d="M104.3 117c1.7 2.4 3.2 4.8 4.6 7.4.1.1.2 0 .2-.1-1-2.7-2.6-5.4-4.5-7.5-.1-.1-.3 0-.3.2zm2.7 1.2c-.1-.1-.3 0-.2.2 1 1.3 1.9 2.7 2.9 4 .1.1.2 0 .2-.1-.9-1.5-1.9-2.8-2.9-4.1zm1.5-.1c-.2-.1-.4.1-.2.2 1.4 1.4 2.6 2.8 3.8 4.3.9 1.2 1.7 2.6 2.7 3.8.1.1.2 0 .2-.1-1.4-3.1-4.1-5.9-6.5-8.2zm3.1 1.4c-.2-.2-.4.1-.3.3 2 2.1 3.6 4.3 5.3 6.6.1.1.3 0 .2-.2-1.3-2.5-3.3-4.7-5.2-6.7zm2.8 1.1c-.1-.1-.2 0-.2.1 1.2 1.6 2.3 3.2 3.4 4.9.1.1.3 0 .2-.1-.9-1.8-2.1-3.4-3.4-4.9zm7 6.1c-1.1-2.1-3-3.8-4.9-5.1-.1-.1-.3.1-.2.2 1.9 1.5 3.3 3.2 4.8 5.1.2.2.4 0 .3-.2zm-17.1-9.1c.1.1.2 0 .1-.1-.1-.3-.3-.5-.6-.7-.1-.1-.3.1-.3.2.8 2 1.8 4.1 3 5.9.1.1.2 0 .2-.1-.6-1.7-1.5-3.5-2.4-5.2zm-2.1-1.1c.4 1.4.8 2.9 1.4 4.2.1.2.3 0 .3-.1-.3-1.4-.9-2.9-1.5-4.2 0-.2-.2-.1-.2.1zm-1 .3c.6 2.3 1 4.7 1.6 7 .1.2.4.2.3-.1-.3-2.4-.9-4.7-1.6-7-.1-.2-.4-.1-.3.1zm-.5.5c.1 1.4-.1 2.9-.1 4.3 0 .2.2.2.3 0 .3-1.4.3-2.9.1-4.4 0 0-.3 0-.3.1zm-.9.3c-1.2 1.8-2.5 4.1-2.7 6.3 0 .2.2.2.3 0 .8-2.2 1.4-4.2 2.7-6.2 0-.1-.2-.3-.3-.1zm-1.9.3c-1.1 1.9-2 4.1-2.3 6.3 0 .2.3.2.3.1.6-2.1 1.2-4.2 2.3-6.1.2-.4-.1-.6-.3-.3zm-1.3.8c-1.1 1.4-2.2 3.1-2.7 4.8-.1.2.2.3.3.1.8-1.7 1.5-3.3 2.6-4.8.1 0-.1-.2-.2-.1zm-1.7.3c-1.2 1.7-2.4 3.6-3 5.7-.1.2.3.3.4.2 1-1.9 1.8-3.8 3-5.6.1-.3-.2-.5-.4-.3zm-1.1.2c.1-.1-.1-.3-.2-.1-1.2 1.8-2.7 4-3.1 6.1 0 .2.2.3.3.1.5-1 .9-2.1 1.3-3.1.5-1 1.1-2 1.7-3zm-1.6-.2c-1.4 1.9-2.7 4.1-3.2 6.4-.1.2.3.3.4.1.9-2.2 1.7-4.3 3.1-6.3.1-.2-.2-.4-.3-.2zm-1.6.8c-1.4 2.2-2.6 4.5-3.2 7 0 .1.1.2.2.1 1-2.4 2-4.7 3.3-6.9.1-.2-.2-.4-.3-.2zm-1.7.3c-1.2 1.2-2.4 2.6-3.1 4.2-.1.1.1.3.2.1.9-1.5 1.8-2.9 3-4.2.1-.1-.1-.2-.1-.1zm-1.9.5c-2.5 1.6-4.9 4.1-5.8 7 0 .1.2.2.2.1 1.6-2.7 3.1-5 5.7-6.8.2-.2.1-.4-.1-.3zm-3.1 1.9c-1.7 1.8-3.3 3.7-4.6 5.7-.1.1.1.2.1.1 1.5-1.9 3-3.9 4.7-5.7 0 0-.1-.2-.2-.1zm.2-.7c.1-.1 0-.3-.1-.2-2.6 1.9-5.5 4.1-6.6 7.3 0 .1.2.2.2.1 1.5-3.1 3.9-5.2 6.5-7.2z" fill="#cfb89a" stroke-width="none" opacity="1" stroke="none"></path></g></g><g id="svga-group-nose-single-move" transform="matrix(1,0,0,1,0,0)"><g id="svga-group-nose-single" transform="matrix(1,0,0,1,0,0)"><path id="SvgjsPath4235" d="M105.53 106.38c.26.82 3.73 4.55 3.79 6.57.06 2.02-2.08 4.04-4.74 2.21 0 0-2.46 1.89-4.74 1.64s-3.54-1.83-3.54-1.83-2.15.82-3.98.19c-1.83-.63-2.27-2.84-.95-4.86 1.33-2.02 3.6-5.49 4.1-7.45.52-1.96 7.09-5.62 10.06 3.53z" fill="#f0c7b1" stroke-width="none" opacity="1" transform="translate(0 1)" stroke="none"></path><path id="SvgjsPath4236" d="M105.49 105.94c-.16-.2-.5.06-.36.28.93 1.43 1.95 2.83 2.81 4.31.59 1 1.18 2.25.77 3.46-.67 1.98-2.42 1.87-3.83 1.11.53-.68.84-1.48.77-2.36-.02-.22-.32-.41-.48-.2-1.4 1.76-2.29 3.6-4.89 3.7-2.75.11-4.52-2.12-5.25-4.51-.06-.21-.35-.16-.36.05-.07 1.1.27 2.16.87 3.06-.4.07-.8.15-1.2.17-1.28.08-1.49-.02-2.33-1.09-.89-1.12-.89-1.4-.4-2.65.23-.58.58-1.08.91-1.61 1.08-1.68 2.04-3.39 2.75-5.26 1.43-3.73 2.05-7.86 1.36-11.81-.03-.17-.29-.12-.29.04-.01 3.2-.21 6.36-1.15 9.44-.97 3.19-2.81 5.59-4.34 8.46-.8 1.49-1.13 3.46.23 4.74 1.35 1.28 3.43.87 5.01.27.94 1.02 2.24 1.72 3.61 1.85 1.55.14 3.58-.61 4.83-1.88 1.45 1.61 4.23.86 4.96-1.19 1.09-3.12-2.3-6.24-4-8.38z" fill="#c27b55" stroke-width="none" opacity="1" transform="translate(0 1)" stroke="none"></path><path id="SvgjsPath4237" d="M102.24 108.78c-.89-.83-2.3-1.07-3.3-.3-.36.28-.58.63-.67 1-.17.06-.34.16-.48.3-.76.74-.44 1.9.21 2.59.55.59 1.45.87 2.24.83.97-.05 1.85-.51 2.39-1.33.63-.95.44-2.31-.39-3.09z" fill="#f8d5c3" stroke-width="none" opacity="1" transform="translate(0 1)" stroke="none"></path></g></g><g id="svga-group-hair-front" transform="matrix(1,0,0,1,0,0)"><path id="SvgjsPath8015" d="M108.6 50.3s-1.3 4-3.6 4.8-10.4 1.4-10.7-2.1-2.7-16-15.5-11.6c0 0 1.7-5 9.8-8.4s9.8-3.6 17 .5c7 4.1 5 14.4 3 16.8z" fill="#decfbc" stroke-width="none" opacity="1"></path><path id="SvgjsPath8016" d="M127.6 59.1s1.6 2.6 3.9 2.6 6.8-4.2 7.6-6.9c.8-2.7 1.8-17.1-10.8-22.7s-3.2 2.8-3.2 2.8 10.8 11.8 2.5 24.2zm4.7.8s-1.4 1.1-.4 2.8c.9 1.8 1.9 4.2 3 9.1s1.1 15.2 1.2 17.1c.1 1.9.1 6.8 1.9 6.9 1.8.1 3.6-.9 4.7-2.8s1.4-10.8 1.4-13.7-.1-16.9-6.6-22.6l-5.2 3.2zm-56.1 9.8s.8 7.4-6.4 9.5c-7.2 2.1-13.6 4.2-10 8.1 3.6 3.8 5.2 4.6 5.2 4.6s-10-4.7-10.5-9.5c-.5-4.7 8.2-9.7 12.9-11.1s8.8-1.6 8.8-1.6zm8.9-31.3c-5.2-.3-8.8 3.7-10.4 7.7s-.9 8.7-.9 8.7c-.1 3.2 4.9 10.1 3.5 7.2-1.4-3.1-.4-4.3.5-6.5.6-1.5 3.7-2 5.6-2 .1 0 .1.1.2.1 3.5 2.2 8.4.7 9.4.3s1.6-1.1 1.7-2.7c.2-5.7-4.4-12.5-9.6-12.8zm38.5 6.9s.6 7.3-3 11.4-15.8.3-14.1-3.5c1.8-3.7 4-9.2 1.9-13.8-2-4.7-6.1-9.6-14.2-8.3 0 0 8.8-2.5 17.9 1.3s10.7 8.7 11.5 12.9z" fill="#cfb89a" stroke-width="none" opacity="1"></path><path id="SvgjsPath8017" d="M67.5 38.9s-11.2 5.9-13.3 14c-2 8.1-3.7 15.5-.9 20.5 0 0-5.9 6.1.9 12.3s9 4.8 9.8 6.8c.7 2 .4 2-.7 2.8 0 0 3 0 3.1-1.7 0 0 .9-1.1-3.9-5.2-4.8-4-7.5-6.4-6.5-8.6s5.4-5.7 9.3-6.4S75 71.3 75.7 69s-.1-3.3-1.8-5.9-6.6-8.5-6.7-11.7c-.2-3.2.3-12.5.3-12.5z" fill="#cfb89a" stroke-width="none" opacity="1"></path><path id="SvgjsPath8018" d="M120.7 56.7s-.5.6 1.4 2.4c1.9 1.8 5.2 1.9 7.9-.5 2.6-2.4 5.6-13.3 2.7-20.2s-10-13.8-22-14.8c0 0 .1-2.6-8.2-4.4S80.4 21 73.6 31c0 0-8.3 1.4-10.2 11.5s6.3 18.3 9.4 22c3.1 3.7-.5 6.6-3.6 7-3.1.5-16.1 2.9-15.2 8.7s10.8 9.9 11.3 12.3c.5 2.4-3.2 2.7-3.8 3.9-.6 1.2-1 4.2 3.8 6.5 0 0-2.5-2.1-2.7-3.9-.2-1.8 1.1-2.7 2.5-3.3 3.1-1.5 2.7-2.9 2-4.3-.7-1.4-5.4-3.9-6.9-5.8s-1.6-4.8.6-7 9.5-4.4 12.9-5.7c9.1-3.6 6.5-5.3 5.8-6.9-1.2-2.6-5-4.6-5.6-8.7s.2-12.2 3.9-16.1 10.5-11.7 25.7-10.8 20.2 10.7 20.7 13.8c.5 3.1-1.2 8.1-3.5 12.5z" fill="#decfbc" stroke-width="none" opacity="1"></path><path id="SvgjsPath8019" d="M120.7 56.7c-.3.5 9.6-17.2-8.4-23.2S83.8 35 78.2 43c-2.6 3.7-5.4 12.8 1.7 20.6S66.8 73.9 62.4 78.8c-4.4 4.9.7 7.1 4.4 11.4 3.7 4.4-3.4 7.1-3.5 9.1-.2 2 2 3.7 2 3.7s-4-1.8-3.5-4.9c.5-3 7.1-2.9 5.1-5.6-2-2.7-12.5-7.2-8.4-13S78 73.4 79 69.2s-7.9-6.7-6.7-15.7 4.4-14.8 12.3-20 25.3-6.6 35.2 2.4 3.5 16.4.9 20.8zM62 73.3c-2.8.5-6.1 1.3-7.7 4-1.3 2.2-1 5 .7 6.9.1.1.3 0 .2-.2-1.5-2.4-1.7-5.5.4-7.6 1.7-1.7 4.1-2.3 6.3-2.9.3 0 .2-.2.1-.2zM70.2 61c-5.2-5-8.7-11.2-5.6-18.4.1-.3-.2-.4-.4-.2-2.5 3.2-2.5 7.2-1 10.9.6 1.5 1.5 3 2.6 4.3 2.3 2.9 7.7 5.8 7.6 9.9 0 .2.3.2.3 0 .6-2.9-1.5-4.5-3.5-6.5zm24.4-40.7c-11 2.4-23.3 8.7-24.5 21.1 0 .2.3.3.4 0 2.4-12.3 13-17.7 24.1-21.1 0 .1 0 0 0 0zM63.3 64.2c-.9-5-7.5-6.3-6.7-12.1 0-.3-.4-.3-.4-.1-2.5 7.1 12.9 11.5 4.1 18.3-.1.1 0 .2.1.2 2-1.3 3.3-3.7 2.9-6.3zM128.1 33c-6.6-8.6-17.3-9.7-27.3-7.1-.2 0-.1.3.1.3 8.7-1.4 18.3-1.8 24.9 5.3 6.9 7.3 9.3 17.9 2.2 25.9-.2.3.1.6.4.4 7.8-6.5 5.1-17.8-.3-24.8zm11.2 16.8c-.1-.2-.5-.2-.4.1.3 4.8-2.3 8.5-7 9.7-.2.1-.2.5.1.4 4.9-.3 8.6-5.3 7.3-10.2zm1 12.6c-1 2.1-2 4.8-4.8 4.8-.4 0-.4.6 0 .6 2.9.2 4.9-2.6 5.1-5.3.1-.2-.2-.3-.3-.1zm1.1 2c0-.1-.1-.1-.2-.1-.1-.3-.1-.7-.2-1-.1-.2-.3-.1-.3.1 1.4 7.9.1 15-3.1 22.2-.1.2.2.4.3.2 2.1-3.4 3.3-7.1 3.8-11 .2 5.9 0 11.7-.9 17.8 0 .2.3.3.3.1 2.3-9.1 2.7-19.2.3-28.3z" fill="#ede8e1" stroke-width="none" opacity="1"></path></g><g id="svga-group-glasses-single-move" transform="matrix(1,0,0,1,0,0)"><g id="svga-group-glasses-single" transform="matrix(1,0,0,1,0,0)"><path id="SvgjsPath7952" d="M64.17 89.45c-1.04.99-.67 5.4.13 9.31.81 3.91 1.35 6.41 3.85 7.42 2.5 1.01 9.24 2.02 16.32 1.28s7.42-2.63 8.36-3.98c.94-1.35 3.58-8.9 3.71-10.79.13-1.89-3.1-2.63-4.99-2.97-1.89-.34-11.94-1.15-17-1.48-5.05-.34-9.1-.01-10.38 1.21z" fill="url(#SvgjsLinearGradient7953)" opacity="1"></path><path id="SvgjsPath7957" d="M135.83 89.45c1.04.99.67 5.4-.13 9.31s-1.35 6.41-3.85 7.42c-2.5 1.01-9.24 2.02-16.32 1.28s-7.42-2.63-8.36-3.98c-.94-1.35-3.58-8.9-3.71-10.79-.13-1.89 3.1-2.63 4.99-2.97 1.89-.34 11.94-1.15 17-1.48 5.05-.34 9.1-.01 10.38 1.21z" fill="url(#SvgjsLinearGradient7958)" opacity="1"></path><path id="SvgjsPath7962" d="M138.52 88.47c-.68-.54-3.81-.7-7.72-.9-3.75-.19-15.06.05-21.72 1.19-3.82.65-6.9 1.41-8.32 1.41h-1.5c-1.43 0-4.51-.75-8.32-1.41-6.66-1.14-17.97-1.38-21.72-1.19-3.91.2-7.04.36-7.72.9-.68.54 0 4.01.27 4.75.27.75.61.61.95 1.09.34.48.82 5.98 1.7 8.76.88 2.79 2.11 4.55 9.71 5.16 7.61.61 14.26-.34 16.78-1.49 2.51-1.15 4.35-6.11 4.82-7.68.48-1.56 1.02-3.26 1.43-4.08.41-.82 2.11-1.4 2.11-1.4h1.5s1.7.58 2.11 1.4c.41.82.95 2.51 1.43 4.08.48 1.56 2.31 6.52 4.82 7.68 2.51 1.15 9.17 2.11 16.78 1.49 7.61-.61 8.83-2.38 9.71-5.16.88-2.79 1.36-8.29 1.7-8.76.34-.48.68-.34.95-1.09.25-.74.93-4.2.25-4.75zm-43.28 6.39c-.95 4.35-3.04 9.19-4.51 10.37-2.22 1.79-11.4 2.38-16.55 1.79-5.15-.59-7.58-1.35-8.61-4.88-1.03-3.53-1.52-9.01-1.22-10.63.29-1.62 1.78-2.57 5.75-2.57s7.84.05 12.84.34c5 .29 8.82 1.08 10.73 1.96s1.89 2.15 1.57 3.62zm39.18 7.28c-1.03 3.53-3.46 4.29-8.61 4.88-5.15.59-14.33 0-16.55-1.79-1.47-1.18-3.55-6.02-4.51-10.37-.32-1.47-.35-2.72 1.56-3.61s5.73-1.67 10.73-1.96c5-.29 8.87-.34 12.84-.34s5.46.95 5.75 2.57c.31 1.61-.18 7.09-1.21 10.62z" fill="#26120b" stroke-width="none" opacity="1"></path><path id="SvgjsPath7963" d="M138.5 88.49c-.61-.36-1.36-.4-2.06-.5-.71-.08-1.43-.13-2.14-.18-1.43-.08-2.87-.16-4.3-.21-2.87-.05-5.74.03-8.61.15-2.87.14-5.73.33-8.58.65-2.85.3-5.66.88-8.48 1.44-1.4.26-2.84.6-4.3.54-1.46.09-2.91-.26-4.31-.51-2.82-.56-5.63-1.14-8.48-1.43-5.7-.6-11.45-.86-17.19-.79-1.43.05-2.87.12-4.3.21-.72.05-1.43.1-2.14.18-.7.1-1.45.15-2.04.48-.24.19-.26.59-.29.93-.02.35 0 .71.04 1.06a15 15 0 0 0 .36 2.11c.09.34.17.7.37.97.18.26.6.37.78.75.24.72.3 1.42.43 2.14.22 1.42.43 2.84.71 4.25.28 1.4.6 2.82 1.3 4.05.7 1.24 2.01 1.97 3.35 2.39 1.35.43 2.78.64 4.2.8 2.85.28 5.72.36 8.58.22 2.85-.15 5.73-.45 8.44-1.27.68-.21 1.32-.47 1.83-.93.52-.45.96-1 1.36-1.58.79-1.17 1.4-2.47 1.92-3.79.53-1.32.87-2.71 1.36-4.08.12-.34.24-.68.38-1.02.14-.32.26-.71.56-1.01.58-.56 1.25-.85 1.95-1.12l.03-.01h1.58l.03.01c.61.23 1.2.49 1.73.92.26.19.52.54.62.83.13.3.25.59.36.89.44 1.19.79 2.41 1.17 3.59.41 1.17.9 2.33 1.48 3.42.59 1.09 1.27 2.14 2.17 2.94.89.77 2.17 1.04 3.36 1.33 1.21.27 2.45.46 3.69.6 2.48.28 4.99.37 7.49.32 2.5-.08 5.02-.22 7.45-.76 1.21-.28 2.41-.7 3.37-1.46.98-.77 1.48-1.96 1.84-3.15.69-2.4.97-4.91 1.39-7.39.06-.31.11-.62.2-.93.07-.35.39-.54.63-.71.49-.38.54-1.08.69-1.67.12-.61.23-1.23.28-1.86.01-.61.12-1.32-.26-1.81zm.03-.03c.24.24.26.59.3.89.02.32.01.63-.01.95-.04.63-.14 1.25-.26 1.87-.06.31-.13.62-.22.92-.09.3-.22.62-.5.82-.25.18-.54.36-.58.66-.08.3-.13.61-.19.92-.4 2.48-.65 4.98-1.32 7.42-.35 1.2-.85 2.45-1.88 3.27-1 .81-2.24 1.26-3.46 1.55-2.47.58-4.99.75-7.51.86-2.52.09-5.04.03-7.56-.23-1.26-.13-2.51-.3-3.75-.58-.62-.15-1.24-.3-1.84-.51-.6-.2-1.23-.49-1.73-.93-.98-.88-1.68-1.97-2.28-3.09-.59-1.13-1.09-2.29-1.5-3.49-.4-1.21-.73-2.41-1.17-3.58-.11-.29-.22-.58-.34-.86-.12-.3-.25-.46-.49-.66-.45-.36-1.02-.63-1.58-.84l.08.01h-1.5l.08-.01c-.64.24-1.31.55-1.76 1-.22.2-.32.53-.47.86-.13.33-.25.66-.37 1-.48 1.34-.82 2.74-1.37 4.09-.54 1.34-1.15 2.67-1.98 3.88-.41.6-.87 1.18-1.44 1.67-.57.51-1.3.8-1.98 1.01-2.8.83-5.69 1.09-8.56 1.23-2.88.11-5.77.01-8.63-.3-1.43-.17-2.86-.39-4.25-.84-1.36-.44-2.75-1.21-3.48-2.52-.72-1.29-1.02-2.72-1.3-4.13-.27-1.41-.47-2.84-.68-4.26-.11-.7-.19-1.44-.4-2.09-.13-.31-.51-.41-.76-.73-.23-.32-.3-.69-.39-1.03-.16-.7-.28-1.42-.35-2.13-.03-.36-.06-.72-.04-1.09.03-.35.02-.77.35-1.06.68-.38 1.41-.41 2.12-.53.72-.09 1.43-.14 2.15-.19 1.44-.1 2.87-.18 4.31-.24 5.75-.11 11.5.1 17.23.66 2.87.27 5.7.84 8.52 1.37 2.82.65 5.64.66 8.46.01 2.82-.53 5.65-1.09 8.52-1.35 2.86-.29 5.73-.46 8.61-.57 2.87-.1 5.75-.16 8.62-.07 1.44.06 2.87.15 4.3.25.72.05 1.43.11 2.15.2.7.11 1.45.15 2.08.54z" fill="#070201" stroke-width="none" opacity="1"></path><path id="SvgjsPath7964" d="M95.27 94.87c-.37 1.73-.89 3.42-1.49 5.08-.62 1.65-1.29 3.3-2.34 4.77-.53.77-1.43 1.21-2.26 1.48-.85.29-1.72.49-2.6.64-1.75.32-3.52.45-5.29.54-3.54.15-7.1-.09-10.57-.81-.86-.19-1.72-.46-2.51-.87a5.14 5.14 0 0 1-1.97-1.79c-.48-.76-.75-1.63-.97-2.49-.23-.86-.4-1.73-.56-2.6-.31-1.74-.53-3.5-.61-5.28-.01-.88-.11-1.79.24-2.71.38-.92 1.3-1.45 2.16-1.71 1.76-.51 3.58-.44 5.33-.4l5.3.14c1.77.06 3.53.09 5.3.16 1.77.09 3.53.29 5.28.56 1.75.28 3.49.64 5.16 1.25.81.32 1.7.66 2.21 1.43.52.79.38 1.77.19 2.61zm-.05-.02c.18-.84.3-1.8-.22-2.53-.51-.72-1.37-1.06-2.19-1.35-1.67-.54-3.42-.84-5.16-1.07-3.49-.49-7.03-.4-10.55-.52l-5.29-.14c-1.76-.06-3.54-.14-5.19.33-.81.24-1.57.69-1.89 1.43-.31.74-.26 1.66-.26 2.52.05 1.75.23 3.51.5 5.25.14.87.3 1.73.51 2.59.21.85.46 1.7.91 2.44a4.87 4.87 0 0 0 1.88 1.75c.77.42 1.62.66 2.48.84 3.45.7 7 .77 10.51.56 1.76-.09 3.51-.28 5.24-.55.86-.14 1.72-.32 2.55-.59.83-.27 1.62-.6 2.14-1.3 1.06-1.38 1.8-3 2.46-4.63.66-1.62 1.17-3.31 1.57-5.03z" fill="#070201" stroke-width="none" opacity="1"></path><path id="SvgjsPath7965" d="M134.45 102.15c-.24.85-.61 1.68-1.19 2.36-.58.68-1.35 1.18-2.17 1.51-1.66.67-3.43.9-5.18 1.15-3.53.43-7.09.35-10.61-.06-1.75-.25-3.52-.53-5.18-1.24-.41-.18-.82-.41-1.14-.74-.31-.33-.58-.69-.81-1.07-.47-.75-.87-1.55-1.23-2.36-.71-1.62-1.31-3.29-1.81-4.99-.23-.86-.48-1.7-.61-2.59-.06-.44-.06-.92.09-1.36.15-.45.45-.83.81-1.11.74-.57 1.6-.84 2.44-1.12.85-.26 1.72-.47 2.59-.65 1.74-.35 3.5-.58 5.27-.72 3.53-.23 7.06-.26 10.6-.36l2.65-.07c.88-.03 1.78-.03 2.67.07.89.1 1.79.26 2.63.67.41.21.8.5 1.08.88s.44.85.49 1.3c.14 1.8-.09 3.56-.32 5.31-.27 1.75-.57 3.49-1.07 5.19zm-.05-.02c.47-1.7.77-3.44.97-5.19.17-1.75.33-3.53.15-5.25-.1-.85-.66-1.55-1.43-1.88-.77-.35-1.63-.49-2.5-.55-1.73-.12-3.51.02-5.27.05l-5.29.14c-1.76.06-3.53.02-5.28.17-1.75.13-3.5.33-5.23.63-.86.16-1.72.34-2.56.58-.83.25-1.69.52-2.37 1.02-.34.25-.6.59-.74.98s-.15.83-.1 1.25c.11.86.35 1.72.57 2.57.46 1.7 1.03 3.37 1.78 4.97.37.8.77 1.58 1.25 2.32.24.37.51.71.81 1.01.3.3.69.49 1.08.66 1.61.64 3.38.87 5.12 1.08 3.49.36 7.03.46 10.53.16 1.75-.19 3.52-.36 5.17-.96.82-.3 1.58-.79 2.16-1.44.55-.66.93-1.47 1.18-2.32z" fill="#070201" stroke-width="none" opacity="1"></path></g></g></g></g></g><rect id="svga-credit-rect" width="200" height="15" x="0" y="185" fill="#ecf0f1" opacity="0.5" style="display: none;"></rect><text id="svga-credit-text" font-family="Avenir Next, Roboto, Helvetica, Arial, sans-serif" font-size="10px" text-anchor="start" font-weight="400" size="10px" anchor="start" weight="400" fill="#333333" x="33.40447998046875" y="182.60824704170227" style="display: none;"><tspan id="SvgjsTspan3125" dy="13" x="33.40447998046875">Created on AvatarMaker.com</tspan></text></g></svg>